<svg width="440" height="832" viewBox="0 0 440 832" fill="none" xmlns="http://www.w3.org/2000/svg" preserveAspectRatio="none">
<g style="mix-blend-mode:hard-light" filter="url(#filter0_f_2033_2355)">
<path d="M258.463 598.308V254.923L402.493 343.579V505.906L258.463 598.308Z" fill="url(#paint0_linear_2033_2355)"/>
</g>
<mask id="path-2-inside-1_2033_2355" fill="white">
<path d="M25.8253 564.923V262.077L0.00012207 238.231V-2.61523H443V238.23L417.175 262.077V564.923L443 588.77V832H0.00012207V588.769L25.8253 564.923Z"/>
</mask>
<path d="M25.8253 564.923V262.077L0.00012207 238.231V-2.61523H443V238.23L417.175 262.077V564.923L443 588.77V832H0.00012207V588.769L25.8253 564.923Z" fill="#363636" fill-opacity="0.24"/>
<path d="M25.8253 564.923L26.1645 565.29L26.3253 565.142V564.923H25.8253ZM25.8253 262.077H26.3253V261.858L26.1645 261.71L25.8253 262.077ZM0.00012207 238.231H-0.499878V238.45L-0.339072 238.599L0.00012207 238.231ZM0.00012207 -2.61523V-3.11523H-0.499878V-2.61523H0.00012207ZM443 -2.61523H443.5V-3.11523H443V-2.61523ZM443 238.23L443.339 238.598L443.5 238.449V238.23H443ZM417.175 262.077L416.836 261.71L416.675 261.858V262.077H417.175ZM417.175 564.923H416.675V565.142L416.836 565.29L417.175 564.923ZM443 588.77H443.5V588.551L443.339 588.402L443 588.77ZM443 832V832.5H443.5V832H443ZM0.00012207 832H-0.499878V832.5H0.00012207V832ZM0.00012207 588.769L-0.339072 588.401L-0.499878 588.55V588.769H0.00012207ZM25.8253 564.923H26.3253V262.077H25.8253H25.3253V564.923H25.8253ZM25.8253 262.077L26.1645 261.71L0.339316 237.864L0.00012207 238.231L-0.339072 238.599L25.4861 262.445L25.8253 262.077ZM0.00012207 238.231H0.500122V-2.61523H0.00012207H-0.499878V238.231H0.00012207ZM0.00012207 -2.61523V-2.11523H443V-2.61523V-3.11523H0.00012207V-2.61523ZM443 -2.61523H442.5V238.23H443H443.5V-2.61523H443ZM443 238.23L442.661 237.863L416.836 261.71L417.175 262.077L417.514 262.445L443.339 238.598L443 238.23ZM417.175 262.077H416.675V564.923H417.175H417.675V262.077H417.175ZM417.175 564.923L416.836 565.29L442.661 589.137L443 588.77L443.339 588.402L417.514 564.556L417.175 564.923ZM443 588.77H442.5V832H443H443.5V588.77H443ZM443 832V831.5H0.00012207V832V832.5H443V832ZM0.00012207 832H0.500122V588.769H0.00012207H-0.499878V832H0.00012207ZM0.00012207 588.769L0.339316 589.136L26.1645 565.29L25.8253 564.923L25.4861 564.556L-0.339072 588.401L0.00012207 588.769Z" fill="url(#paint1_radial_2033_2355)" mask="url(#path-2-inside-1_2033_2355)"/>
<path d="M25.8253 564.923L26.1645 565.29L26.3253 565.142V564.923H25.8253ZM25.8253 262.077H26.3253V261.858L26.1645 261.71L25.8253 262.077ZM0.00012207 238.231H-0.499878V238.45L-0.339072 238.599L0.00012207 238.231ZM0.00012207 -2.61523V-3.11523H-0.499878V-2.61523H0.00012207ZM443 -2.61523H443.5V-3.11523H443V-2.61523ZM443 238.23L443.339 238.598L443.5 238.449V238.23H443ZM417.175 262.077L416.836 261.71L416.675 261.858V262.077H417.175ZM417.175 564.923H416.675V565.142L416.836 565.29L417.175 564.923ZM443 588.77H443.5V588.551L443.339 588.402L443 588.77ZM443 832V832.5H443.5V832H443ZM0.00012207 832H-0.499878V832.5H0.00012207V832ZM0.00012207 588.769L-0.339072 588.401L-0.499878 588.55V588.769H0.00012207ZM25.8253 564.923H26.3253V262.077H25.8253H25.3253V564.923H25.8253ZM25.8253 262.077L26.1645 261.71L0.339316 237.864L0.00012207 238.231L-0.339072 238.599L25.4861 262.445L25.8253 262.077ZM0.00012207 238.231H0.500122V-2.61523H0.00012207H-0.499878V238.231H0.00012207ZM0.00012207 -2.61523V-2.11523H443V-2.61523V-3.11523H0.00012207V-2.61523ZM443 -2.61523H442.5V238.23H443H443.5V-2.61523H443ZM443 238.23L442.661 237.863L416.836 261.71L417.175 262.077L417.514 262.445L443.339 238.598L443 238.23ZM417.175 262.077H416.675V564.923H417.175H417.675V262.077H417.175ZM417.175 564.923L416.836 565.29L442.661 589.137L443 588.77L443.339 588.402L417.514 564.556L417.175 564.923ZM443 588.77H442.5V832H443H443.5V588.77H443ZM443 832V831.5H0.00012207V832V832.5H443V832ZM0.00012207 832H0.500122V588.769H0.00012207H-0.499878V832H0.00012207ZM0.00012207 588.769L0.339316 589.136L26.1645 565.29L25.8253 564.923L25.4861 564.556L-0.339072 588.401L0.00012207 588.769Z" fill="#FFEA5A" fill-opacity="0.3" mask="url(#path-2-inside-1_2033_2355)"/>
<mask id="path-5-inside-2_2033_2355" fill="white">
<path d="M417 262.692L417 565.538L439.979 586.902L439.979 829.615L-6.03699e-05 829.615L-4.29489e-05 588.769L25.6494 564.923L25.6494 262.077L-1.75935e-05 238.23L0 -5.00005L439.979 -5L439.979 241.328L417 262.692Z"/>
</mask>
<path d="M417 262.692L416.66 262.326L416.5 262.475L416.5 262.692L417 262.692ZM417 565.538L416.5 565.538L416.5 565.756L416.66 565.904L417 565.538ZM439.979 586.902L440.479 586.902L440.479 586.685L440.32 586.536L439.979 586.902ZM439.979 829.615L439.979 830.115L440.479 830.115L440.479 829.615L439.979 829.615ZM-6.03699e-05 829.615L-0.50006 829.615L-0.50006 830.115L-6.0406e-05 830.115L-6.03699e-05 829.615ZM-4.29489e-05 588.769L-0.340497 588.403L-0.500043 588.552L-0.500043 588.769L-4.29489e-05 588.769ZM25.6494 564.923L25.9898 565.289L26.1494 565.141L26.1494 564.923L25.6494 564.923ZM25.6494 262.077L26.1494 262.077L26.1494 261.859L25.9898 261.711L25.6494 262.077ZM-1.75935e-05 238.23L-0.500018 238.23L-0.500018 238.448L-0.340472 238.597L-1.75935e-05 238.23ZM0 -5.00005L3.61663e-08 -5.50005L-0.5 -5.50005L-0.5 -5.00005L0 -5.00005ZM439.979 -5L440.479 -5L440.479 -5.5L439.979 -5.5L439.979 -5ZM439.979 241.328L440.32 241.694L440.479 241.546L440.479 241.328L439.979 241.328ZM417 262.692L416.5 262.692L416.5 565.538L417 565.538L417.5 565.538L417.5 262.692L417 262.692ZM417 565.538L416.66 565.904L439.639 587.269L439.979 586.902L440.32 586.536L417.34 565.172L417 565.538ZM439.979 586.902L439.479 586.902L439.479 829.615L439.979 829.615L440.479 829.615L440.479 586.902L439.979 586.902ZM439.979 829.615L439.979 829.115L-6.03337e-05 829.115L-6.03699e-05 829.615L-6.0406e-05 830.115L439.979 830.115L439.979 829.615ZM-6.03699e-05 829.615L0.49994 829.615L0.499957 588.769L-4.29489e-05 588.769L-0.500043 588.769L-0.50006 829.615L-6.03699e-05 829.615ZM-4.29489e-05 588.769L0.340411 589.136L25.9898 565.289L25.6494 564.923L25.3089 564.557L-0.340497 588.403L-4.29489e-05 588.769ZM25.6494 564.923L26.1494 564.923L26.1494 262.077L25.6494 262.077L25.1494 262.077L25.1494 564.923L25.6494 564.923ZM25.6494 262.077L25.9898 261.711L0.340437 237.864L-1.75935e-05 238.23L-0.340472 238.597L25.3089 262.443L25.6494 262.077ZM-1.75935e-05 238.23L0.499982 238.23L0.5 -5.00005L0 -5.00005L-0.5 -5.00005L-0.500018 238.23L-1.75935e-05 238.23ZM0 -5.00005L-3.61663e-08 -4.50005L439.979 -4.5L439.979 -5L439.979 -5.5L3.61663e-08 -5.50005L0 -5.00005ZM439.979 -5L439.479 -5L439.479 241.328L439.979 241.328L440.479 241.328L440.479 -5L439.979 -5ZM439.979 241.328L439.639 240.962L416.66 262.326L417 262.692L417.34 263.059L440.32 241.694L439.979 241.328Z" fill="url(#paint2_radial_2033_2355)" mask="url(#path-5-inside-2_2033_2355)"/>
<rect width="832" height="148" transform="matrix(0 -1 -1 0 453 832)" fill="url(#paint3_linear_2033_2355)" fill-opacity="0.2"/>
<rect width="832" height="148" transform="matrix(0 -1 -1 0 453 832)" fill="url(#paint4_linear_2033_2355)" fill-opacity="0.2"/>
<defs>
<filter id="filter0_f_2033_2355" x="184.463" y="180.923" width="292.029" height="491.385" filterUnits="userSpaceOnUse" color-interpolation-filters="sRGB">
<feFlood flood-opacity="0" result="BackgroundImageFix"/>
<feBlend mode="normal" in="SourceGraphic" in2="BackgroundImageFix" result="shape"/>
<feGaussianBlur stdDeviation="37" result="effect1_foregroundBlur_2033_2355"/>
</filter>
<linearGradient id="paint0_linear_2033_2355" x1="258.463" y1="426.615" x2="402.493" y2="426.615" gradientUnits="userSpaceOnUse">
<stop stop-color="#F3CB63" stop-opacity="0"/>
<stop offset="1" stop-color="#F3C263"/>
</linearGradient>
<radialGradient id="paint1_radial_2033_2355" cx="0" cy="0" r="1" gradientUnits="userSpaceOnUse" gradientTransform="translate(-63.5694 414.692) scale(164.883 310.642)">
<stop stop-color="#FF8A00"/>
<stop offset="1" stop-color="white" stop-opacity="0"/>
</radialGradient>
<radialGradient id="paint2_radial_2033_2355" cx="0" cy="0" r="1" gradientUnits="userSpaceOnUse" gradientTransform="translate(503.116 412.308) rotate(-180) scale(163.759 310.642)">
<stop stop-color="#FF8A00"/>
<stop offset="1" stop-color="white" stop-opacity="0"/>
</radialGradient>
<linearGradient id="paint3_linear_2033_2355" x1="416" y1="-40.2971" x2="416" y2="148" gradientUnits="userSpaceOnUse">
<stop stop-color="#FFE70F"/>
<stop offset="1" stop-color="#05003B" stop-opacity="0"/>
</linearGradient>
<linearGradient id="paint4_linear_2033_2355" x1="416" y1="-40.2971" x2="416" y2="148" gradientUnits="userSpaceOnUse">
<stop stop-color="#FFE70F"/>
<stop offset="1" stop-color="#05003B" stop-opacity="0"/>
</linearGradient>
</defs>
</svg>
