<svg width="460" height="129" viewBox="0 0 460 129" fill="none" xmlns="http://www.w3.org/2000/svg">
<path d="M0 0.5L459.035 0.500018M7.96911e-07 2.45402L459.035 2.45404M7.96911e-07 4.40816L459.035 4.40817M7.96911e-07 6.36218L459.035 6.36219M7.96911e-07 8.31631L459.035 8.31633M7.96911e-07 10.2703L459.035 10.2703M7.96911e-07 12.2245L459.035 12.2245M7.96911e-07 14.1785L459.035 14.1785M7.96911e-07 16.1325L459.035 16.1325M7.96911e-07 18.0866L459.035 18.0867M7.96911e-07 20.0407L459.035 20.0407M7.96911e-07 21.9948L459.035 21.9948M7.96911e-07 23.9488L459.035 23.9488M7.96911e-07 25.903L459.035 25.903M7.96911e-07 27.857L459.035 27.857M7.96911e-07 29.811L459.035 29.811M7.96911e-07 31.7651L459.035 31.7651M7.96911e-07 33.7192L459.035 33.7192M7.96911e-07 35.6733L459.035 35.6733M7.96911e-07 37.6273L459.035 37.6273M7.96911e-07 39.5814L459.035 39.5815M7.96911e-07 41.5355L459.035 41.5355M7.96911e-07 43.4895L459.035 43.4895M7.96911e-07 45.4436L459.035 45.4436M7.96911e-07 47.3976L459.035 47.3977M7.96911e-07 49.3518L459.035 49.3518M7.96911e-07 51.3058L459.035 51.3058M7.96911e-07 53.2599L459.035 53.2599M7.96911e-07 55.214L459.035 55.214M7.96911e-07 57.168L459.035 57.168M7.96911e-07 59.1221L459.035 59.1221M7.96911e-07 61.0761L459.035 61.0762M7.96911e-07 63.0303L459.035 63.0303M3.79482e-08 64.9843L459.035 64.9843M7.96911e-07 66.9384L459.035 66.9384M7.96911e-07 68.8924L459.035 68.8925M7.96911e-07 70.8465L459.035 70.8465M7.96911e-07 72.8006L459.035 72.8006M7.96911e-07 74.7546L459.035 74.7546M7.96911e-07 76.7088L459.035 76.7088M7.96911e-07 78.6628L459.035 78.6628M7.96911e-07 80.6169L459.035 80.6169M7.96911e-07 82.5709L459.035 82.571M7.96911e-07 84.525L459.035 84.525M7.96911e-07 86.4791L459.035 86.4791M7.96911e-07 88.4331L459.035 88.4331M7.96911e-07 90.3872L459.035 90.3873M7.96911e-07 92.3413L459.035 92.3413M7.96911e-07 94.2954L459.035 94.2954M7.96911e-07 96.2494L459.035 96.2494M7.96911e-07 98.2034L459.035 98.2035M7.96911e-07 100.158L459.035 100.158M7.96911e-07 102.112L459.035 102.112M7.96911e-07 104.066L459.035 104.066M7.96911e-07 106.02L459.035 106.02M7.96911e-07 107.974L459.035 107.974M7.96911e-07 109.928L459.035 109.928M7.96911e-07 111.882L459.035 111.882M7.96911e-07 113.836L459.035 113.836M7.96911e-07 115.79L459.035 115.79M7.96911e-07 117.744L459.035 117.744M7.96911e-07 119.698L459.035 119.698M7.96911e-07 121.652L459.035 121.652M7.96911e-07 123.606L459.035 123.606M7.96911e-07 125.56L459.035 125.56M7.96911e-07 127.515L459.035 127.515" stroke="#D9D9D9" stroke-opacity="0.05"/>
</svg>
