<svg width="1440" height="456" viewBox="0 0 1440 456" fill="none" xmlns="http://www.w3.org/2000/svg">
  <path d="M583.72 439.277C596.514 436.59 608.955 432.438 620.798 426.903C658.359 409.063 687.079 380.33 710.498 350.378C727.689 328.529 740.449 303.533 748.059 276.793V276.769C750.146 269.296 751.74 261.694 752.83 254.012C753.894 246.15 754.315 238.214 754.089 230.283C753.759 220.257 752.098 210.318 749.148 200.73C748.741 199.479 748.334 198.236 747.927 196.985C747.52 195.734 746.971 194.485 746.488 193.232C745.967 191.981 745.532 190.738 744.936 189.487C744.34 188.236 743.743 186.993 743.147 185.742C742.579 184.499 741.878 183.248 741.178 182.005C740.478 180.762 739.787 179.519 739.048 178.284C738.234 177.057 737.429 175.822 736.615 174.595C736.198 173.981 735.815 173.368 735.365 172.762C734.901 172.156 734.447 171.551 733.983 170.937C730.124 165.805 725.729 161.098 720.873 156.897C715.43 152.158 709.445 148.08 703.043 144.748C689.677 137.497 672.373 133.306 655.571 133.433C645.36 133.54 635.214 135.08 625.431 138.007C625.417 138.009 625.404 138.014 625.393 138.023C614.598 141.245 604.503 146.464 595.632 153.409C588.079 159.428 581.709 166.795 576.843 175.137C572.612 182.414 569.621 190.344 567.992 198.603C566.506 206.254 566.098 214.074 566.78 221.838C568.209 238.172 574.097 253.591 582.749 267.447C587.124 274.425 592.103 281.006 597.63 287.112C603.271 293.259 609.324 299.015 615.748 304.339C615.748 304.339 615.767 304.347 615.767 304.355C625.682 312.51 636.2 319.901 647.232 326.466C667.28 338.425 688.906 347.514 711.478 353.466C735.255 359.723 759.811 362.506 784.385 361.729C793.037 361.41 801.651 360.685 810.17 359.562C818.689 358.415 827.07 356.797 835.302 354.845C851.407 350.979 867.08 345.495 882.083 338.479C909.868 325.604 934.772 307.256 955.303 284.535C964.681 274.083 973.02 262.745 980.203 250.679C987.008 239.117 992.737 226.954 997.318 214.345C1005.91 190.097 1010.39 164.587 1010.58 138.864V138.84C1010.58 136.973 1010.57 135.109 1010.56 133.246C1010.5 131.381 1010.45 129.509 1010.38 127.646C1009.86 115.761 1008.18 103.954 1005.36 92.395C1002.38 79.8983 997.688 67.8705 991.431 56.648C987.864 50.304 983.685 44.3236 978.955 38.792C967.056 24.8714 951.512 14.5446 934.067 8.97201C924.149 5.81508 913.831 4.09232 903.425 3.85601H903.387C901.125 3.84001 898.853 3.85601 896.587 3.88801C885.957 4.27721 875.435 6.16034 865.33 9.48201C856.246 12.4931 847.597 16.6843 839.605 21.948C832.62 26.5396 826.157 31.8806 820.332 37.876C815.111 43.2475 810.393 49.0859 806.237 55.318C798.728 66.6109 792.897 78.9327 788.924 91.899C787.039 98.0057 785.515 104.218 784.361 110.504C783.275 116.67 782.504 122.888 782.051 129.133V129.157C781.147 143.744 781.166 158.373 782.108 172.957C784.969 214.322 797.05 254.523 817.464 290.613C818.893 293.322 820.578 295.952 822.225 298.597C823.891 301.234 825.481 303.897 827.225 306.497C829.033 309.078 830.838 311.663 832.64 314.25C833.558 315.533 834.41 316.85 835.395 318.106C836.38 319.362 837.355 320.624 838.329 321.883C840.307 324.393 842.22 326.935 844.255 329.413C846.366 331.859 848.48 334.303 850.597 336.744C851.667 337.955 852.689 339.198 853.806 340.385C854.942 341.564 856.068 342.744 857.206 343.931C859.487 346.282 861.712 348.664 864.05 350.991L871.292 357.804C872.513 358.927 873.687 360.091 874.946 361.182C876.224 362.266 877.492 363.357 878.77 364.441C881.335 366.608 883.863 368.799 886.47 370.927C889.159 372.994 891.847 375.06 894.535 377.127C895.889 378.155 897.214 379.207 898.596 380.203C900.006 381.183 901.407 382.163 902.818 383.135C905.639 385.087 908.46 387.037 911.281 388.984C914.214 390.825 917.148 392.663 920.081 394.498C921.548 395.414 923.018 396.33 924.492 397.247L929.055 399.821L938.19 404.952C941.304 406.577 944.466 408.139 947.599 409.733C949.17 410.522 950.742 411.319 952.313 412.107C953.875 412.907 955.522 413.589 957.131 414.33C960.359 415.78 963.59 417.233 966.824 418.688C968.424 419.437 970.09 420.082 971.746 420.744C973.402 421.406 975.059 422.067 976.706 422.728C978.353 423.389 980.019 424.043 981.675 424.704C983.331 425.365 984.988 426.027 986.683 426.592C990.062 427.779 993.438 428.967 996.811 430.154C998.505 430.728 1000.17 431.373 1001.89 431.891L1007.04 433.469C1034.58 441.943 1062.8 448.03 1091.39 451.66H1091.41C1123.88 455.636 1156.62 456.897 1189.3 455.429C1216.55 454.108 1243.7 451.136 1270.59 446.529C1296.92 442.061 1322.99 436.196 1348.7 428.96L1358.22 426.26C1361.37 425.312 1364.51 424.361 1367.66 423.407C1373.98 421.542 1380.16 419.447 1386.4 417.455C1398.79 413.296 1411.03 408.905 1423.14 404.284C1435.22 399.617 1447.15 394.68 1458.94 389.471C1464.84 386.866 1470.7 384.172 1476.53 381.391C1479.45 379.991 1482.37 378.578 1485.29 377.112C1488.23 375.638 1491.11 374.18 1494.23 372.512L1495.7 371.723L1486.04 360.608L1476.39 349.493L1466.73 338.378L1457.08 327.263C1456.59 327.518 1456.36 327.646 1456.36 327.646C1454.16 328.817 1451.64 330.108 1449.16 331.346C1446.66 332.597 1444.1 333.832 1441.53 335.067C1436.37 337.521 1431.14 339.925 1425.83 342.278C1415.22 346.971 1404.38 351.441 1393.41 355.688C1382.42 359.903 1371.29 363.893 1360.04 367.656C1354.38 369.449 1348.77 371.369 1343.06 373.042L1334.52 375.624L1325.92 378.062C1302.93 384.542 1279.6 389.792 1256.05 393.791C1232.52 397.826 1208.76 400.437 1184.91 401.608C1157.11 402.857 1129.24 401.796 1101.61 398.437C1077.75 395.41 1054.2 390.34 1031.21 383.282L1026.97 381.991C1025.55 381.569 1024.21 381.035 1022.83 380.565C1020.07 379.601 1017.32 378.634 1014.56 377.665C1013.17 377.203 1011.83 376.677 1010.49 376.127C1009.15 375.593 1007.82 375.051 1006.47 374.517C1005.13 373.983 1003.79 373.449 1002.45 372.917C1001.1 372.385 999.748 371.873 998.463 371.26C995.863 370.089 993.26 368.915 990.654 367.738C989.367 367.138 988.022 366.606 986.773 365.953L982.996 364.041C980.478 362.766 977.957 361.491 975.433 360.216L968.133 356.104C966.912 355.419 965.691 354.741 964.479 354.056C963.315 353.323 962.141 352.59 960.979 351.856C958.641 350.389 956.3 348.926 953.955 347.466C951.712 345.912 949.468 344.356 947.225 342.797C946.099 342.024 944.981 341.243 943.855 340.47C942.755 339.67 941.706 338.829 940.637 338.008C938.498 336.367 936.349 334.725 934.21 333.076C932.137 331.376 930.14 329.618 928.095 327.897C927.073 327.036 926.06 326.168 925.038 325.307C924.038 324.438 923.107 323.507 922.132 322.607C920.199 320.798 918.271 318.99 916.348 317.181C914.493 315.324 912.723 313.412 910.896 311.54L908.17 308.719C907.27 307.771 906.47 306.767 905.605 305.795C903.911 303.835 902.205 301.883 900.512 299.923C898.874 297.931 897.35 295.875 895.751 293.859L893.375 290.823C892.575 289.811 891.908 288.743 891.16 287.707C889.702 285.619 888.235 283.532 886.777 281.444C885.367 279.332 884.089 277.157 882.735 275.022C881.4 272.879 880.009 270.751 878.854 268.528C861.503 238.034 851.989 204.417 849.49 170.211C848.701 157.634 848.688 145.021 849.452 132.443C849.802 127.766 850.373 123.15 851.165 118.595C851.997 114.075 853.094 109.608 854.45 105.217C857.047 96.6366 860.873 88.4775 865.809 80.994C870.232 74.1565 875.969 68.2658 882.687 63.664C885.456 61.7994 888.461 60.3123 891.623 59.242C894.33 58.3512 897.145 57.8312 899.991 57.696C900.591 57.72 901.184 57.712 901.78 57.696C904.329 57.7346 906.858 58.1481 909.287 58.923C911.742 59.7376 914.063 60.9081 916.178 62.397C920.968 65.664 926.004 71.433 929.942 78.497C934.07 86.0073 937.159 94.0434 939.124 102.385C941.248 111.163 942.516 120.127 942.91 129.15C942.957 130.608 943.005 132.066 943.052 133.532C943.052 134.998 943.052 136.456 943.062 137.922C942.926 158.743 939.327 179.397 932.413 199.037C928.85 208.837 924.401 218.291 919.123 227.284C902.34 255.536 877.408 278.054 847.598 291.884C811.555 308.786 770.711 312.455 732.232 302.248C716.452 298.066 701.337 291.688 687.332 283.3C679.163 278.436 671.374 272.959 664.032 266.918C659.871 263.451 655.941 259.717 652.266 255.739C648.879 251.999 645.828 247.967 643.15 243.691C637.981 235.452 634.829 226.751 634.119 218.448C633.784 214.746 633.965 211.016 634.659 207.364C635.297 204.082 636.471 200.927 638.133 198.025C639.528 195.58 641.352 193.407 643.519 191.611C645.323 190.211 647.357 189.135 649.53 188.432C651.869 187.713 654.297 187.321 656.743 187.269C658.334 187.285 659.919 187.477 661.467 187.843C661.846 187.978 662.253 187.986 662.631 188.154C663.017 188.306 663.412 188.433 663.814 188.536C664.202 188.727 664.6 188.903 665.014 189.062C665.435 189.244 665.846 189.449 666.245 189.676C670.189 191.832 673.602 194.844 676.232 198.489C676.432 198.736 676.632 198.989 676.832 199.238C677.021 199.501 677.192 199.788 677.372 200.059C677.741 200.609 678.11 201.159 678.472 201.7C678.803 202.29 679.135 202.879 679.466 203.477C679.828 204.063 680.151 204.673 680.432 205.302L681.341 207.19C681.653 207.812 681.871 208.513 682.141 209.166C682.397 209.843 682.709 210.481 682.927 211.174C683.145 211.867 683.372 212.568 683.599 213.274C685.393 219.154 686.392 225.248 686.571 231.393C686.705 236.85 686.404 242.31 685.671 247.719C684.854 253.374 683.678 258.971 682.15 264.476C676.267 285.23 666.381 304.632 653.05 321.591C632.65 347.691 605.37 370.802 569.029 379.383C532.888 387.925 494.172 385.483 457.557 380.61C394.608 372.22 333.135 357.192 272.857 339.774C168.043 309.494 65.199 271.359 -23.233 215.148C-37.877 235.797 -17.837 265.12 -33.087 285.448C95.197 343.806 228.052 393.463 369.948 423.223C378.515 425.016 387.097 426.745 395.696 428.41C452.396 439.35 523.781 452.219 583.682 439.231L583.72 439.277Z" fill="url(#mask-svg-01)" />
  <path d="M-29 251.5L10.5 268L37.5 280.5L64.5 293.5L97.5 307.5L129 321.5L154.5 331.5L196 345.5L232.5 358L273 368.5L328.5 384.5L383.5 396L448 409L476.5 413L507 417.5H549L601.5 403.5L635 384.5L661.5 358L687.5 322.5L706.5 295L717.5 251V217.5L703.5 181.5L671.5 160.5L635 166.5L609.5 181.5L601.5 206L609.5 246.5L635 277.5L665 303L706.5 322.5L742.5 331.5H799L830.5 326.5L872.5 310.5L911.5 286.5L944.5 246.5L965.5 206L976 166.5V119L959 65.5L931 35.5L889 31L852.5 47L826 89L815.5 132L818.5 181.5L833.5 246.5L852.5 281.5L878.5 319.5L911.5 354.5L965.5 389L1024 408.5L1109 425.5L1179.5 428L1243 422.5L1303.5 408.5L1374.5 389L1446 363.5" stroke="black" />
  <defs>
    <linearGradient id="mask-svg-01" x1="-33.087" y1="229.936" x2="1495.7" y2="229.936" gradientUnits="userSpaceOnUse">
      <stop offset="0.1" stop-color="#FCEE21" />
      <stop offset="0.13" stop-color="#F2EA20" />
      <stop offset="0.18" stop-color="#D9E21F" />
      <stop offset="0.25" stop-color="#AFD41E" />
      <stop offset="0.33" stop-color="#76C21C" />
      <stop offset="0.41" stop-color="#36AD1B" />
    </linearGradient>
  </defs>
</svg>