<svg width="36" height="34" viewBox="0 0 36 34" fill="none" xmlns="http://www.w3.org/2000/svg">
<path d="M20.9485 11H14.6925C12.6564 11 11 12.5786 11 14.519V20.4811C11 22.4214 12.6564 24 14.6925 24H20.9486C22.9845 24 24.6409 22.4214 24.6409 20.4811V14.519C24.6409 12.5786 22.9845 11 20.9485 11V11ZM23.8412 20.4811C23.8412 22.0012 22.5436 23.2379 20.9485 23.2379H14.6925C13.0974 23.2379 11.7997 22.0012 11.7997 20.4811V14.519C11.7997 12.9988 13.0974 11.7621 14.6925 11.7621H20.9486C22.5436 11.7621 23.8412 12.9988 23.8412 14.519V20.4811Z" fill="black"/>
<path d="M17.8207 13.9454C15.764 13.9454 14.0908 15.54 14.0908 17.5C14.0908 19.46 15.764 21.0546 17.8207 21.0546C19.8773 21.0546 21.5505 19.46 21.5505 17.5C21.5505 15.54 19.8773 13.9454 17.8207 13.9454V13.9454ZM17.8207 20.2925C16.205 20.2925 14.8905 19.0398 14.8905 17.5C14.8905 15.9603 16.205 14.7075 17.8207 14.7075C19.4364 14.7075 20.7508 15.9603 20.7508 17.5C20.7508 19.0398 19.4364 20.2925 17.8207 20.2925V20.2925Z" fill="black"/>
<path d="M21.6397 12.683C21.0319 12.683 20.5376 13.1542 20.5376 13.7333C20.5376 14.3125 21.0319 14.7838 21.6397 14.7838C22.2475 14.7838 22.7419 14.3125 22.7419 13.7333C22.7419 13.1541 22.2475 12.683 21.6397 12.683ZM21.6397 14.0215C21.473 14.0215 21.3373 13.8922 21.3373 13.7333C21.3373 13.5743 21.473 13.4451 21.6397 13.4451C21.8065 13.4451 21.9423 13.5743 21.9423 13.7333C21.9423 13.8922 21.8065 14.0215 21.6397 14.0215Z" fill="black"/>
</svg>
