<svg width="29" height="29" viewBox="0 0 29 29" fill="none" xmlns="http://www.w3.org/2000/svg">
<path d="M27.5358 26.1218L19.9838 18.5698C21.7986 16.3911 22.7035 13.5966 22.5104 10.7677C22.3173 7.93873 21.041 5.29315 18.947 3.38128C16.853 1.4694 14.1025 0.438435 11.2677 0.502846C8.43293 0.567258 5.73211 1.72209 3.7271 3.7271C1.72209 5.73211 0.567258 8.43293 0.502846 11.2677C0.438435 14.1025 1.4694 16.853 3.38128 18.947C5.29315 21.041 7.93873 22.3173 10.7677 22.5104C13.5966 22.7035 16.3911 21.7986 18.5698 19.9838L26.1218 27.5358L27.5358 26.1218ZM2.53576 11.5358C2.53576 9.75573 3.0636 8.01567 4.05253 6.53563C5.04147 5.05559 6.44707 3.90203 8.09161 3.22084C9.73614 2.53966 11.5457 2.36143 13.2916 2.70869C15.0374 3.05596 16.641 3.91313 17.8997 5.1718C19.1584 6.43047 20.0156 8.03412 20.3628 9.77995C20.7101 11.5258 20.5319 13.3354 19.8507 14.9799C19.1695 16.6244 18.0159 18.0301 16.5359 19.019C15.0559 20.0079 13.3158 20.5358 11.5358 20.5358C9.14962 20.5331 6.86198 19.5841 5.17472 17.8968C3.48747 16.2095 2.53841 13.9219 2.53576 11.5358Z" fill="#979797" stroke="#979797"/>
</svg>
