<svg width="247" height="24" viewBox="0 0 247 24" fill="none" xmlns="http://www.w3.org/2000/svg">
<path d="M246.75 2.69336C244.59 4.54362 242.557 6.48047 240.652 8.50391C238.747 10.5182 237.016 12.6602 235.457 14.9297C235.439 15.0664 235.43 15.2077 235.43 15.3535C235.43 15.4902 235.43 15.627 235.43 15.7637C235.43 17.0488 235.566 18.2839 235.84 19.4688C236.122 20.6536 236.519 21.8021 237.029 22.9141C235.954 22.5951 234.892 22.3535 233.844 22.1895C232.796 22.0163 231.729 21.9297 230.645 21.9297C229.232 21.9297 227.824 22.071 226.42 22.3535C227.04 21.0684 227.546 19.7695 227.938 18.457C228.339 17.1445 228.598 15.791 228.717 14.3965C227.577 12.2454 226.251 10.2402 224.738 8.38086C223.234 6.52148 221.516 4.80339 219.584 3.22656C220.35 3.35417 221.097 3.45443 221.826 3.52734C222.555 3.59115 223.266 3.62305 223.959 3.62305C224.807 3.62305 225.618 3.57292 226.393 3.47266C227.167 3.36328 227.915 3.19466 228.635 2.9668C229.054 4.30664 229.583 5.54167 230.221 6.67188C230.868 7.79297 231.633 8.80924 232.518 9.7207C233.493 8.7819 234.304 7.74284 234.951 6.60352C235.607 5.46419 236.141 4.21549 236.551 2.85742C237.262 3.0306 237.982 3.15365 238.711 3.22656C239.449 3.29948 240.215 3.33594 241.008 3.33594C241.91 3.33594 242.835 3.28581 243.783 3.18555C244.74 3.08529 245.729 2.92122 246.75 2.69336Z" fill="url(#paint0_linear_7796_255)"/>
<path d="M246.75 2.69336C244.59 4.54362 242.557 6.48047 240.652 8.50391C238.747 10.5182 237.016 12.6602 235.457 14.9297C235.439 15.0664 235.43 15.2077 235.43 15.3535C235.43 15.4902 235.43 15.627 235.43 15.7637C235.43 17.0488 235.566 18.2839 235.84 19.4688C236.122 20.6536 236.519 21.8021 237.029 22.9141C235.954 22.5951 234.892 22.3535 233.844 22.1895C232.796 22.0163 231.729 21.9297 230.645 21.9297C229.232 21.9297 227.824 22.071 226.42 22.3535C227.04 21.0684 227.546 19.7695 227.938 18.457C228.339 17.1445 228.598 15.791 228.717 14.3965C227.577 12.2454 226.251 10.2402 224.738 8.38086C223.234 6.52148 221.516 4.80339 219.584 3.22656C220.35 3.35417 221.097 3.45443 221.826 3.52734C222.555 3.59115 223.266 3.62305 223.959 3.62305C224.807 3.62305 225.618 3.57292 226.393 3.47266C227.167 3.36328 227.915 3.19466 228.635 2.9668C229.054 4.30664 229.583 5.54167 230.221 6.67188C230.868 7.79297 231.633 8.80924 232.518 9.7207C233.493 8.7819 234.304 7.74284 234.951 6.60352C235.607 5.46419 236.141 4.21549 236.551 2.85742C237.262 3.0306 237.982 3.15365 238.711 3.22656C239.449 3.29948 240.215 3.33594 241.008 3.33594C241.91 3.33594 242.835 3.28581 243.783 3.18555C244.74 3.08529 245.729 2.92122 246.75 2.69336Z" fill="#EFA009"/>
<path d="M215.291 22.4355C215.109 22.4355 214.926 22.431 214.744 22.4219C214.562 22.4128 214.38 22.4082 214.197 22.4082C213.003 22.4082 211.841 22.4902 210.711 22.6543C209.581 22.8275 208.473 23.1009 207.389 23.4746C207.37 23.2103 207.361 22.9368 207.361 22.6543C207.361 22.3809 207.361 22.112 207.361 21.8477C207.361 19.2409 207.535 16.7435 207.881 14.3555C208.236 11.9674 208.792 9.6569 209.549 7.42383C208.054 7.57878 206.573 7.8431 205.105 8.2168C203.647 8.58138 202.225 9.06445 200.84 9.66602C201.177 8.26237 201.346 6.85417 201.346 5.44141C201.346 4.79427 201.309 4.14714 201.236 3.5C201.173 2.84375 201.068 2.20117 200.922 1.57227C202.617 1.95508 204.335 2.27409 206.076 2.5293C207.817 2.77539 209.59 2.9349 211.395 3.00781C211.65 2.4974 211.914 1.99154 212.188 1.49023C212.47 0.988932 212.766 0.492188 213.076 0C212.994 1.01172 212.939 2.02344 212.912 3.03516H213.322C214.507 3.03516 215.683 2.98958 216.85 2.89844C218.016 2.80729 219.197 2.6569 220.391 2.44727C220.181 2.83919 219.999 3.25846 219.844 3.70508C219.698 4.15169 219.625 4.69401 219.625 5.33203C219.625 5.69661 219.652 6.09766 219.707 6.53516C219.771 6.96354 219.876 7.44661 220.021 7.98438C218.992 7.7474 217.898 7.5651 216.74 7.4375C215.583 7.30078 214.38 7.23242 213.131 7.23242H212.912C212.985 9.79362 213.204 12.3366 213.568 14.8613C213.942 17.377 214.516 19.9017 215.291 22.4355Z" fill="url(#paint1_linear_7796_255)"/>
<path d="M215.291 22.4355C215.109 22.4355 214.926 22.431 214.744 22.4219C214.562 22.4128 214.38 22.4082 214.197 22.4082C213.003 22.4082 211.841 22.4902 210.711 22.6543C209.581 22.8275 208.473 23.1009 207.389 23.4746C207.37 23.2103 207.361 22.9368 207.361 22.6543C207.361 22.3809 207.361 22.112 207.361 21.8477C207.361 19.2409 207.535 16.7435 207.881 14.3555C208.236 11.9674 208.792 9.6569 209.549 7.42383C208.054 7.57878 206.573 7.8431 205.105 8.2168C203.647 8.58138 202.225 9.06445 200.84 9.66602C201.177 8.26237 201.346 6.85417 201.346 5.44141C201.346 4.79427 201.309 4.14714 201.236 3.5C201.173 2.84375 201.068 2.20117 200.922 1.57227C202.617 1.95508 204.335 2.27409 206.076 2.5293C207.817 2.77539 209.59 2.9349 211.395 3.00781C211.65 2.4974 211.914 1.99154 212.188 1.49023C212.47 0.988932 212.766 0.492188 213.076 0C212.994 1.01172 212.939 2.02344 212.912 3.03516H213.322C214.507 3.03516 215.683 2.98958 216.85 2.89844C218.016 2.80729 219.197 2.6569 220.391 2.44727C220.181 2.83919 219.999 3.25846 219.844 3.70508C219.698 4.15169 219.625 4.69401 219.625 5.33203C219.625 5.69661 219.652 6.09766 219.707 6.53516C219.771 6.96354 219.876 7.44661 220.021 7.98438C218.992 7.7474 217.898 7.5651 216.74 7.4375C215.583 7.30078 214.38 7.23242 213.131 7.23242H212.912C212.985 9.79362 213.204 12.3366 213.568 14.8613C213.942 17.377 214.516 19.9017 215.291 22.4355Z" fill="#EFA009"/>
<path d="M200.074 15.7637C199.965 16.6387 199.787 17.4225 199.541 18.1152C199.295 18.7988 198.999 19.4095 198.652 19.9473C198.652 20.2389 198.652 20.5443 198.652 20.8633C198.661 21.1823 198.671 21.5013 198.68 21.8203C198.689 22.1302 198.702 22.431 198.721 22.7227C198.739 23.0143 198.762 23.2741 198.789 23.502L195.631 23.9668L195.07 22.9141C194.241 23.2604 193.393 23.4974 192.527 23.625C191.671 23.7617 190.855 23.8301 190.08 23.8301C188.449 23.8301 186.954 23.5977 185.596 23.1328C184.238 22.668 183.039 21.9707 182 21.041C180.961 20.1113 180.09 18.9492 179.389 17.5547C178.696 16.151 178.199 14.5195 177.898 12.6602C178.108 12.7331 178.331 12.8014 178.568 12.8652C178.805 12.929 179.042 12.9837 179.279 13.0293C179.443 11.179 179.926 9.55664 180.729 8.16211C181.531 6.75846 182.57 5.58724 183.846 4.64844C185.131 3.70052 186.612 2.98958 188.289 2.51562C189.975 2.03255 191.785 1.79102 193.717 1.79102C194.601 1.79102 195.544 1.83659 196.547 1.92773C197.559 2.01888 198.643 2.16927 199.801 2.37891C199.536 3.20833 199.336 4.04232 199.199 4.88086C199.072 5.71029 199.008 6.53971 199.008 7.36914C199.008 8.24414 199.076 9.11003 199.213 9.9668C198.675 9.56576 198.137 9.23307 197.6 8.96875C197.062 8.69531 196.533 8.48112 196.014 8.32617C195.503 8.16211 195.002 8.04818 194.51 7.98438C194.018 7.91146 193.548 7.875 193.102 7.875C192.254 7.875 191.388 7.98893 190.504 8.2168C189.62 8.44466 188.781 8.7819 187.988 9.22852C187.204 9.66602 186.498 10.2083 185.869 10.8555C185.249 11.4935 184.775 12.2272 184.447 13.0566C184.821 13.002 185.176 12.9382 185.514 12.8652C185.851 12.7832 186.188 12.6875 186.525 12.5781C186.471 12.9792 186.443 13.3529 186.443 13.6992C186.443 14.6107 186.598 15.4036 186.908 16.0781C187.218 16.7526 187.646 17.3132 188.193 17.7598C188.74 18.1973 189.383 18.5254 190.121 18.7441C190.868 18.9629 191.675 19.0723 192.541 19.0723C192.687 19.0723 192.833 19.0723 192.979 19.0723C193.124 19.0723 193.27 19.0632 193.416 19.0449C193.051 18.0241 192.751 16.9987 192.514 15.9688C192.277 14.9388 192.072 13.8359 191.898 12.6602C192.336 12.7422 192.764 12.806 193.184 12.8516C193.603 12.8971 194.018 12.9199 194.428 12.9199C195.312 12.9199 196.173 12.8242 197.012 12.6328C197.85 12.4414 198.712 12.1634 199.596 11.7988C199.158 13.5124 198.871 15.1895 198.734 16.8301C198.962 16.6751 199.181 16.5111 199.391 16.3379C199.609 16.1556 199.837 15.9642 200.074 15.7637Z" fill="url(#paint2_linear_7796_255)"/>
<path d="M200.074 15.7637C199.965 16.6387 199.787 17.4225 199.541 18.1152C199.295 18.7988 198.999 19.4095 198.652 19.9473C198.652 20.2389 198.652 20.5443 198.652 20.8633C198.661 21.1823 198.671 21.5013 198.68 21.8203C198.689 22.1302 198.702 22.431 198.721 22.7227C198.739 23.0143 198.762 23.2741 198.789 23.502L195.631 23.9668L195.07 22.9141C194.241 23.2604 193.393 23.4974 192.527 23.625C191.671 23.7617 190.855 23.8301 190.08 23.8301C188.449 23.8301 186.954 23.5977 185.596 23.1328C184.238 22.668 183.039 21.9707 182 21.041C180.961 20.1113 180.09 18.9492 179.389 17.5547C178.696 16.151 178.199 14.5195 177.898 12.6602C178.108 12.7331 178.331 12.8014 178.568 12.8652C178.805 12.929 179.042 12.9837 179.279 13.0293C179.443 11.179 179.926 9.55664 180.729 8.16211C181.531 6.75846 182.57 5.58724 183.846 4.64844C185.131 3.70052 186.612 2.98958 188.289 2.51562C189.975 2.03255 191.785 1.79102 193.717 1.79102C194.601 1.79102 195.544 1.83659 196.547 1.92773C197.559 2.01888 198.643 2.16927 199.801 2.37891C199.536 3.20833 199.336 4.04232 199.199 4.88086C199.072 5.71029 199.008 6.53971 199.008 7.36914C199.008 8.24414 199.076 9.11003 199.213 9.9668C198.675 9.56576 198.137 9.23307 197.6 8.96875C197.062 8.69531 196.533 8.48112 196.014 8.32617C195.503 8.16211 195.002 8.04818 194.51 7.98438C194.018 7.91146 193.548 7.875 193.102 7.875C192.254 7.875 191.388 7.98893 190.504 8.2168C189.62 8.44466 188.781 8.7819 187.988 9.22852C187.204 9.66602 186.498 10.2083 185.869 10.8555C185.249 11.4935 184.775 12.2272 184.447 13.0566C184.821 13.002 185.176 12.9382 185.514 12.8652C185.851 12.7832 186.188 12.6875 186.525 12.5781C186.471 12.9792 186.443 13.3529 186.443 13.6992C186.443 14.6107 186.598 15.4036 186.908 16.0781C187.218 16.7526 187.646 17.3132 188.193 17.7598C188.74 18.1973 189.383 18.5254 190.121 18.7441C190.868 18.9629 191.675 19.0723 192.541 19.0723C192.687 19.0723 192.833 19.0723 192.979 19.0723C193.124 19.0723 193.27 19.0632 193.416 19.0449C193.051 18.0241 192.751 16.9987 192.514 15.9688C192.277 14.9388 192.072 13.8359 191.898 12.6602C192.336 12.7422 192.764 12.806 193.184 12.8516C193.603 12.8971 194.018 12.9199 194.428 12.9199C195.312 12.9199 196.173 12.8242 197.012 12.6328C197.85 12.4414 198.712 12.1634 199.596 11.7988C199.158 13.5124 198.871 15.1895 198.734 16.8301C198.962 16.6751 199.181 16.5111 199.391 16.3379C199.609 16.1556 199.837 15.9642 200.074 15.7637Z" fill="#EFA009"/>
<path d="M178.527 3.67773C177.215 5.31836 176.217 7.06836 175.533 8.92773C174.859 10.7871 174.521 12.7878 174.521 14.9297C174.521 16.0326 174.613 17.1673 174.795 18.334C174.977 19.4915 175.26 20.6901 175.643 21.9297C174.886 21.957 174.116 22.0299 173.332 22.1484C172.658 22.2487 171.915 22.4082 171.104 22.627C170.292 22.8457 169.499 23.1556 168.725 23.5566C168.46 22.7819 168.169 22.0391 167.85 21.3281C167.531 20.6081 167.202 19.929 166.865 19.291C166.528 18.653 166.186 18.056 165.84 17.5C165.503 16.944 165.179 16.4336 164.869 15.9688C164.131 14.8841 163.383 13.9134 162.627 13.0566C162.618 13.0475 162.604 13.0293 162.586 13.002C162.568 12.9837 162.549 12.9655 162.531 12.9473C162.513 12.9199 162.495 12.888 162.477 12.8516C162.531 13.6445 162.559 14.4193 162.559 15.1758C162.559 17.9648 162.199 20.7129 161.479 23.4199C159.893 22.8548 158.257 22.5723 156.57 22.5723C156.033 22.5723 155.486 22.5996 154.93 22.6543C154.383 22.709 153.831 22.7956 153.275 22.9141C154.579 21.2917 155.568 19.5508 156.242 17.6914C156.926 15.832 157.268 13.8086 157.268 11.6211C157.268 10.8919 157.227 10.1445 157.145 9.37891C157.072 8.61328 156.958 7.82943 156.803 7.02734C156.21 6.53516 155.572 6.03385 154.889 5.52344C154.205 5.01302 153.471 4.48893 152.688 3.95117C153.535 4.06966 154.346 4.11979 155.121 4.10156C155.905 4.08333 156.68 3.99674 157.445 3.8418C158.211 3.67773 158.986 3.44987 159.77 3.1582C160.553 2.86654 161.374 2.50651 162.23 2.07812L169.531 15.2031C169.404 14.3919 169.308 13.5944 169.244 12.8105C169.18 12.0267 169.148 11.2474 169.148 10.4727C169.148 8.78646 169.312 7.15951 169.641 5.5918C169.978 4.02409 170.511 2.51562 171.24 1.06641C173.419 2.60677 175.848 3.47721 178.527 3.67773Z" fill="url(#paint3_linear_7796_255)"/>
<path d="M178.527 3.67773C177.215 5.31836 176.217 7.06836 175.533 8.92773C174.859 10.7871 174.521 12.7878 174.521 14.9297C174.521 16.0326 174.613 17.1673 174.795 18.334C174.977 19.4915 175.26 20.6901 175.643 21.9297C174.886 21.957 174.116 22.0299 173.332 22.1484C172.658 22.2487 171.915 22.4082 171.104 22.627C170.292 22.8457 169.499 23.1556 168.725 23.5566C168.46 22.7819 168.169 22.0391 167.85 21.3281C167.531 20.6081 167.202 19.929 166.865 19.291C166.528 18.653 166.186 18.056 165.84 17.5C165.503 16.944 165.179 16.4336 164.869 15.9688C164.131 14.8841 163.383 13.9134 162.627 13.0566C162.618 13.0475 162.604 13.0293 162.586 13.002C162.568 12.9837 162.549 12.9655 162.531 12.9473C162.513 12.9199 162.495 12.888 162.477 12.8516C162.531 13.6445 162.559 14.4193 162.559 15.1758C162.559 17.9648 162.199 20.7129 161.479 23.4199C159.893 22.8548 158.257 22.5723 156.57 22.5723C156.033 22.5723 155.486 22.5996 154.93 22.6543C154.383 22.709 153.831 22.7956 153.275 22.9141C154.579 21.2917 155.568 19.5508 156.242 17.6914C156.926 15.832 157.268 13.8086 157.268 11.6211C157.268 10.8919 157.227 10.1445 157.145 9.37891C157.072 8.61328 156.958 7.82943 156.803 7.02734C156.21 6.53516 155.572 6.03385 154.889 5.52344C154.205 5.01302 153.471 4.48893 152.688 3.95117C153.535 4.06966 154.346 4.11979 155.121 4.10156C155.905 4.08333 156.68 3.99674 157.445 3.8418C158.211 3.67773 158.986 3.44987 159.77 3.1582C160.553 2.86654 161.374 2.50651 162.23 2.07812L169.531 15.2031C169.404 14.3919 169.308 13.5944 169.244 12.8105C169.18 12.0267 169.148 11.2474 169.148 10.4727C169.148 8.78646 169.312 7.15951 169.641 5.5918C169.978 4.02409 170.511 2.51562 171.24 1.06641C173.419 2.60677 175.848 3.47721 178.527 3.67773Z" fill="#EFA009"/>
<path d="M147.629 2.66602C147.264 2.98503 146.918 3.31771 146.59 3.66406C146.271 4.0013 145.965 4.36133 145.674 4.74414C146.631 4.93555 147.533 5.25456 148.381 5.70117C149.238 6.14779 149.985 6.71289 150.623 7.39648C151.261 8.08008 151.767 8.88216 152.141 9.80273C152.514 10.7142 152.701 11.7305 152.701 12.8516C152.701 14.1003 152.514 15.235 152.141 16.2559C151.776 17.2676 151.266 18.1699 150.609 18.9629C149.953 19.7467 149.178 20.4258 148.285 21C147.392 21.5742 146.421 22.0527 145.373 22.4355C144.325 22.8092 143.222 23.0827 142.064 23.2559C140.916 23.4382 139.754 23.5293 138.578 23.5293C138.168 23.5293 137.74 23.5202 137.293 23.502C136.846 23.4928 136.413 23.4701 135.994 23.4336C135.584 23.4062 135.197 23.3607 134.832 23.2969C134.477 23.2422 134.185 23.1693 133.957 23.0781C134.276 22.8138 134.568 22.5449 134.832 22.2715C135.096 21.998 135.347 21.7155 135.584 21.4238C134.627 21.2324 133.72 20.9316 132.863 20.5215C132.007 20.1113 131.255 19.5918 130.607 18.9629C129.969 18.3249 129.464 17.5684 129.09 16.6934C128.716 15.8184 128.529 14.8112 128.529 13.6719C128.529 12.3503 128.743 11.1562 129.172 10.0898C129.609 9.01432 130.202 8.06641 130.949 7.24609C131.706 6.41667 132.59 5.70573 133.602 5.11328C134.613 4.51172 135.702 4.01953 136.869 3.63672C138.036 3.24479 139.248 2.95768 140.506 2.77539C141.773 2.5931 143.026 2.50195 144.266 2.50195C144.803 2.50195 145.346 2.51562 145.893 2.54297C146.449 2.57031 147.027 2.61133 147.629 2.66602ZM146.562 11.6758C146.562 11.1471 146.499 10.6732 146.371 10.2539C146.243 9.82552 146.066 9.44271 145.838 9.10547C145.61 8.76823 145.337 8.47656 145.018 8.23047C144.708 7.98438 144.366 7.77018 143.992 7.58789C143.846 7.91602 143.714 8.24414 143.596 8.57227C143.486 8.90039 143.382 9.23763 143.281 9.58398C142.753 9.40169 142.256 9.27865 141.791 9.21484C141.335 9.14193 140.911 9.10547 140.52 9.10547C139.836 9.10547 139.143 9.22852 138.441 9.47461C137.74 9.71159 137.106 10.0579 136.541 10.5137C135.985 10.9694 135.529 11.5208 135.174 12.168C134.818 12.8151 134.641 13.5397 134.641 14.3418C134.641 14.752 134.7 15.153 134.818 15.5449C134.946 15.9277 135.119 16.2969 135.338 16.6523C135.566 17.0078 135.83 17.3496 136.131 17.6777C136.441 17.9967 136.773 18.3021 137.129 18.5938C137.257 18.2109 137.352 17.8327 137.416 17.459C137.489 17.0762 137.535 16.6706 137.553 16.2422C138.154 16.5521 138.729 16.7663 139.275 16.8848C139.831 17.0033 140.346 17.0625 140.82 17.0625C141.531 17.0625 142.229 16.9395 142.912 16.6934C143.605 16.4473 144.22 16.0918 144.758 15.627C145.305 15.1621 145.742 14.597 146.07 13.9316C146.398 13.2663 146.562 12.5143 146.562 11.6758Z" fill="url(#paint4_linear_7796_255)"/>
<path d="M147.629 2.66602C147.264 2.98503 146.918 3.31771 146.59 3.66406C146.271 4.0013 145.965 4.36133 145.674 4.74414C146.631 4.93555 147.533 5.25456 148.381 5.70117C149.238 6.14779 149.985 6.71289 150.623 7.39648C151.261 8.08008 151.767 8.88216 152.141 9.80273C152.514 10.7142 152.701 11.7305 152.701 12.8516C152.701 14.1003 152.514 15.235 152.141 16.2559C151.776 17.2676 151.266 18.1699 150.609 18.9629C149.953 19.7467 149.178 20.4258 148.285 21C147.392 21.5742 146.421 22.0527 145.373 22.4355C144.325 22.8092 143.222 23.0827 142.064 23.2559C140.916 23.4382 139.754 23.5293 138.578 23.5293C138.168 23.5293 137.74 23.5202 137.293 23.502C136.846 23.4928 136.413 23.4701 135.994 23.4336C135.584 23.4062 135.197 23.3607 134.832 23.2969C134.477 23.2422 134.185 23.1693 133.957 23.0781C134.276 22.8138 134.568 22.5449 134.832 22.2715C135.096 21.998 135.347 21.7155 135.584 21.4238C134.627 21.2324 133.72 20.9316 132.863 20.5215C132.007 20.1113 131.255 19.5918 130.607 18.9629C129.969 18.3249 129.464 17.5684 129.09 16.6934C128.716 15.8184 128.529 14.8112 128.529 13.6719C128.529 12.3503 128.743 11.1562 129.172 10.0898C129.609 9.01432 130.202 8.06641 130.949 7.24609C131.706 6.41667 132.59 5.70573 133.602 5.11328C134.613 4.51172 135.702 4.01953 136.869 3.63672C138.036 3.24479 139.248 2.95768 140.506 2.77539C141.773 2.5931 143.026 2.50195 144.266 2.50195C144.803 2.50195 145.346 2.51562 145.893 2.54297C146.449 2.57031 147.027 2.61133 147.629 2.66602ZM146.562 11.6758C146.562 11.1471 146.499 10.6732 146.371 10.2539C146.243 9.82552 146.066 9.44271 145.838 9.10547C145.61 8.76823 145.337 8.47656 145.018 8.23047C144.708 7.98438 144.366 7.77018 143.992 7.58789C143.846 7.91602 143.714 8.24414 143.596 8.57227C143.486 8.90039 143.382 9.23763 143.281 9.58398C142.753 9.40169 142.256 9.27865 141.791 9.21484C141.335 9.14193 140.911 9.10547 140.52 9.10547C139.836 9.10547 139.143 9.22852 138.441 9.47461C137.74 9.71159 137.106 10.0579 136.541 10.5137C135.985 10.9694 135.529 11.5208 135.174 12.168C134.818 12.8151 134.641 13.5397 134.641 14.3418C134.641 14.752 134.7 15.153 134.818 15.5449C134.946 15.9277 135.119 16.2969 135.338 16.6523C135.566 17.0078 135.83 17.3496 136.131 17.6777C136.441 17.9967 136.773 18.3021 137.129 18.5938C137.257 18.2109 137.352 17.8327 137.416 17.459C137.489 17.0762 137.535 16.6706 137.553 16.2422C138.154 16.5521 138.729 16.7663 139.275 16.8848C139.831 17.0033 140.346 17.0625 140.82 17.0625C141.531 17.0625 142.229 16.9395 142.912 16.6934C143.605 16.4473 144.22 16.0918 144.758 15.627C145.305 15.1621 145.742 14.597 146.07 13.9316C146.398 13.2663 146.562 12.5143 146.562 11.6758Z" fill="#EFA009"/>
<path d="M127.367 15.7637C127.221 16.903 126.962 17.8919 126.588 18.7305C126.214 19.569 125.763 20.2891 125.234 20.8906C124.706 21.4831 124.118 21.9707 123.471 22.3535C122.824 22.7363 122.154 23.0371 121.461 23.2559C120.768 23.4746 120.071 23.625 119.369 23.707C118.676 23.7891 118.011 23.8301 117.373 23.8301C115.742 23.8301 114.247 23.5977 112.889 23.1328C111.531 22.668 110.332 21.9707 109.293 21.041C108.254 20.1113 107.383 18.9492 106.682 17.5547C105.989 16.151 105.492 14.5195 105.191 12.6602C105.401 12.7331 105.624 12.8014 105.861 12.8652C106.098 12.929 106.335 12.9837 106.572 13.0293C106.736 11.179 107.219 9.55664 108.021 8.16211C108.824 6.75846 109.863 5.58724 111.139 4.64844C112.424 3.70052 113.905 2.98958 115.582 2.51562C117.268 2.03255 119.077 1.79102 121.01 1.79102C121.894 1.79102 122.837 1.83659 123.84 1.92773C124.852 2.01888 125.936 2.16927 127.094 2.37891C126.829 3.20833 126.629 4.04232 126.492 4.88086C126.365 5.71029 126.301 6.53971 126.301 7.36914C126.301 8.24414 126.369 9.11003 126.506 9.9668C125.968 9.56576 125.43 9.23307 124.893 8.96875C124.355 8.69531 123.826 8.48112 123.307 8.32617C122.796 8.16211 122.295 8.04818 121.803 7.98438C121.311 7.91146 120.841 7.875 120.395 7.875C119.556 7.875 118.69 7.99349 117.797 8.23047C116.904 8.45833 116.056 8.79557 115.254 9.24219C114.461 9.6888 113.75 10.2357 113.121 10.8828C112.492 11.5208 112.023 12.2546 111.713 13.084C112.087 13.0293 112.447 12.9609 112.793 12.8789C113.139 12.7878 113.481 12.6875 113.818 12.5781C113.764 12.9792 113.736 13.3529 113.736 13.6992C113.736 14.556 113.887 15.3216 114.188 15.9961C114.488 16.6615 114.898 17.2266 115.418 17.6914C115.938 18.1471 116.553 18.498 117.264 18.7441C117.975 18.9811 118.74 19.0996 119.561 19.0996C120.025 19.0996 120.554 19.0586 121.146 18.9766C121.748 18.8854 122.386 18.7214 123.061 18.4844C123.735 18.2383 124.437 17.901 125.166 17.4727C125.895 17.0352 126.629 16.4655 127.367 15.7637Z" fill="url(#paint5_linear_7796_255)"/>
<path d="M127.367 15.7637C127.221 16.903 126.962 17.8919 126.588 18.7305C126.214 19.569 125.763 20.2891 125.234 20.8906C124.706 21.4831 124.118 21.9707 123.471 22.3535C122.824 22.7363 122.154 23.0371 121.461 23.2559C120.768 23.4746 120.071 23.625 119.369 23.707C118.676 23.7891 118.011 23.8301 117.373 23.8301C115.742 23.8301 114.247 23.5977 112.889 23.1328C111.531 22.668 110.332 21.9707 109.293 21.041C108.254 20.1113 107.383 18.9492 106.682 17.5547C105.989 16.151 105.492 14.5195 105.191 12.6602C105.401 12.7331 105.624 12.8014 105.861 12.8652C106.098 12.929 106.335 12.9837 106.572 13.0293C106.736 11.179 107.219 9.55664 108.021 8.16211C108.824 6.75846 109.863 5.58724 111.139 4.64844C112.424 3.70052 113.905 2.98958 115.582 2.51562C117.268 2.03255 119.077 1.79102 121.01 1.79102C121.894 1.79102 122.837 1.83659 123.84 1.92773C124.852 2.01888 125.936 2.16927 127.094 2.37891C126.829 3.20833 126.629 4.04232 126.492 4.88086C126.365 5.71029 126.301 6.53971 126.301 7.36914C126.301 8.24414 126.369 9.11003 126.506 9.9668C125.968 9.56576 125.43 9.23307 124.893 8.96875C124.355 8.69531 123.826 8.48112 123.307 8.32617C122.796 8.16211 122.295 8.04818 121.803 7.98438C121.311 7.91146 120.841 7.875 120.395 7.875C119.556 7.875 118.69 7.99349 117.797 8.23047C116.904 8.45833 116.056 8.79557 115.254 9.24219C114.461 9.6888 113.75 10.2357 113.121 10.8828C112.492 11.5208 112.023 12.2546 111.713 13.084C112.087 13.0293 112.447 12.9609 112.793 12.8789C113.139 12.7878 113.481 12.6875 113.818 12.5781C113.764 12.9792 113.736 13.3529 113.736 13.6992C113.736 14.556 113.887 15.3216 114.188 15.9961C114.488 16.6615 114.898 17.2266 115.418 17.6914C115.938 18.1471 116.553 18.498 117.264 18.7441C117.975 18.9811 118.74 19.0996 119.561 19.0996C120.025 19.0996 120.554 19.0586 121.146 18.9766C121.748 18.8854 122.386 18.7214 123.061 18.4844C123.735 18.2383 124.437 17.901 125.166 17.4727C125.895 17.0352 126.629 16.4655 127.367 15.7637Z" fill="#EFA009"/>
<path d="M88.1016 2.66602C87.737 2.98503 87.3906 3.31771 87.0625 3.66406C86.7435 4.0013 86.4382 4.36133 86.1465 4.74414C87.1035 4.93555 88.0059 5.25456 88.8535 5.70117C89.7103 6.14779 90.4577 6.71289 91.0957 7.39648C91.7337 8.08008 92.2396 8.88216 92.6133 9.80273C92.987 10.7142 93.1738 11.7305 93.1738 12.8516C93.1738 14.1003 92.987 15.235 92.6133 16.2559C92.2487 17.2676 91.7383 18.1699 91.082 18.9629C90.4258 19.7467 89.651 20.4258 88.7578 21C87.8646 21.5742 86.8939 22.0527 85.8457 22.4355C84.7975 22.8092 83.6947 23.0827 82.5371 23.2559C81.3887 23.4382 80.2266 23.5293 79.0508 23.5293C78.6406 23.5293 78.2122 23.5202 77.7656 23.502C77.319 23.4928 76.8861 23.4701 76.4668 23.4336C76.0566 23.4062 75.6693 23.3607 75.3047 23.2969C74.9492 23.2422 74.6576 23.1693 74.4297 23.0781C74.7487 22.8138 75.0404 22.5449 75.3047 22.2715C75.569 21.998 75.8197 21.7155 76.0566 21.4238C75.0996 21.2324 74.1927 20.9316 73.3359 20.5215C72.4792 20.1113 71.7272 19.5918 71.0801 18.9629C70.4421 18.3249 69.9362 17.5684 69.5625 16.6934C69.1888 15.8184 69.002 14.8112 69.002 13.6719C69.002 12.3503 69.2161 11.1562 69.6445 10.0898C70.082 9.01432 70.6745 8.06641 71.4219 7.24609C72.1784 6.41667 73.0625 5.70573 74.0742 5.11328C75.0859 4.51172 76.1751 4.01953 77.3418 3.63672C78.5085 3.24479 79.7207 2.95768 80.9785 2.77539C82.2454 2.5931 83.4987 2.50195 84.7383 2.50195C85.276 2.50195 85.8184 2.51562 86.3652 2.54297C86.9212 2.57031 87.5 2.61133 88.1016 2.66602ZM87.0352 11.6758C87.0352 11.1471 86.9714 10.6732 86.8438 10.2539C86.7161 9.82552 86.5384 9.44271 86.3105 9.10547C86.0827 8.76823 85.8092 8.47656 85.4902 8.23047C85.1803 7.98438 84.8385 7.77018 84.4648 7.58789C84.319 7.91602 84.1868 8.24414 84.0684 8.57227C83.959 8.90039 83.8542 9.23763 83.7539 9.58398C83.2253 9.40169 82.7285 9.27865 82.2637 9.21484C81.8079 9.14193 81.3841 9.10547 80.9922 9.10547C80.3086 9.10547 79.6159 9.22852 78.9141 9.47461C78.2122 9.71159 77.5788 10.0579 77.0137 10.5137C76.4577 10.9694 76.002 11.5208 75.6465 12.168C75.291 12.8151 75.1133 13.5397 75.1133 14.3418C75.1133 14.752 75.1725 15.153 75.291 15.5449C75.4186 15.9277 75.5918 16.2969 75.8105 16.6523C76.0384 17.0078 76.3027 17.3496 76.6035 17.6777C76.9134 17.9967 77.2461 18.3021 77.6016 18.5938C77.7292 18.2109 77.8249 17.8327 77.8887 17.459C77.9616 17.0762 78.0072 16.6706 78.0254 16.2422C78.627 16.5521 79.2012 16.7663 79.748 16.8848C80.304 17.0033 80.819 17.0625 81.293 17.0625C82.0039 17.0625 82.7012 16.9395 83.3848 16.6934C84.0775 16.4473 84.6927 16.0918 85.2305 15.627C85.7773 15.1621 86.2148 14.597 86.543 13.9316C86.8711 13.2663 87.0352 12.5143 87.0352 11.6758Z" fill="url(#paint6_linear_7796_255)"/>
<path d="M88.1016 2.66602C87.737 2.98503 87.3906 3.31771 87.0625 3.66406C86.7435 4.0013 86.4382 4.36133 86.1465 4.74414C87.1035 4.93555 88.0059 5.25456 88.8535 5.70117C89.7103 6.14779 90.4577 6.71289 91.0957 7.39648C91.7337 8.08008 92.2396 8.88216 92.6133 9.80273C92.987 10.7142 93.1738 11.7305 93.1738 12.8516C93.1738 14.1003 92.987 15.235 92.6133 16.2559C92.2487 17.2676 91.7383 18.1699 91.082 18.9629C90.4258 19.7467 89.651 20.4258 88.7578 21C87.8646 21.5742 86.8939 22.0527 85.8457 22.4355C84.7975 22.8092 83.6947 23.0827 82.5371 23.2559C81.3887 23.4382 80.2266 23.5293 79.0508 23.5293C78.6406 23.5293 78.2122 23.5202 77.7656 23.502C77.319 23.4928 76.8861 23.4701 76.4668 23.4336C76.0566 23.4062 75.6693 23.3607 75.3047 23.2969C74.9492 23.2422 74.6576 23.1693 74.4297 23.0781C74.7487 22.8138 75.0404 22.5449 75.3047 22.2715C75.569 21.998 75.8197 21.7155 76.0566 21.4238C75.0996 21.2324 74.1927 20.9316 73.3359 20.5215C72.4792 20.1113 71.7272 19.5918 71.0801 18.9629C70.4421 18.3249 69.9362 17.5684 69.5625 16.6934C69.1888 15.8184 69.002 14.8112 69.002 13.6719C69.002 12.3503 69.2161 11.1562 69.6445 10.0898C70.082 9.01432 70.6745 8.06641 71.4219 7.24609C72.1784 6.41667 73.0625 5.70573 74.0742 5.11328C75.0859 4.51172 76.1751 4.01953 77.3418 3.63672C78.5085 3.24479 79.7207 2.95768 80.9785 2.77539C82.2454 2.5931 83.4987 2.50195 84.7383 2.50195C85.276 2.50195 85.8184 2.51562 86.3652 2.54297C86.9212 2.57031 87.5 2.61133 88.1016 2.66602ZM87.0352 11.6758C87.0352 11.1471 86.9714 10.6732 86.8438 10.2539C86.7161 9.82552 86.5384 9.44271 86.3105 9.10547C86.0827 8.76823 85.8092 8.47656 85.4902 8.23047C85.1803 7.98438 84.8385 7.77018 84.4648 7.58789C84.319 7.91602 84.1868 8.24414 84.0684 8.57227C83.959 8.90039 83.8542 9.23763 83.7539 9.58398C83.2253 9.40169 82.7285 9.27865 82.2637 9.21484C81.8079 9.14193 81.3841 9.10547 80.9922 9.10547C80.3086 9.10547 79.6159 9.22852 78.9141 9.47461C78.2122 9.71159 77.5788 10.0579 77.0137 10.5137C76.4577 10.9694 76.002 11.5208 75.6465 12.168C75.291 12.8151 75.1133 13.5397 75.1133 14.3418C75.1133 14.752 75.1725 15.153 75.291 15.5449C75.4186 15.9277 75.5918 16.2969 75.8105 16.6523C76.0384 17.0078 76.3027 17.3496 76.6035 17.6777C76.9134 17.9967 77.2461 18.3021 77.6016 18.5938C77.7292 18.2109 77.8249 17.8327 77.8887 17.459C77.9616 17.0762 78.0072 16.6706 78.0254 16.2422C78.627 16.5521 79.2012 16.7663 79.748 16.8848C80.304 17.0033 80.819 17.0625 81.293 17.0625C82.0039 17.0625 82.7012 16.9395 83.3848 16.6934C84.0775 16.4473 84.6927 16.0918 85.2305 15.627C85.7773 15.1621 86.2148 14.597 86.543 13.9316C86.8711 13.2663 87.0352 12.5143 87.0352 11.6758Z" fill="#EFA009"/>
<path d="M67.5664 15.7637C67.457 16.6387 67.2793 17.4225 67.0332 18.1152C66.7871 18.7988 66.4909 19.4095 66.1445 19.9473C66.1445 20.2389 66.1445 20.5443 66.1445 20.8633C66.1536 21.1823 66.1628 21.5013 66.1719 21.8203C66.181 22.1302 66.1947 22.431 66.2129 22.7227C66.2311 23.0143 66.2539 23.2741 66.2812 23.502L63.123 23.9668L62.5625 22.9141C61.7331 23.2604 60.8854 23.4974 60.0195 23.625C59.1628 23.7617 58.347 23.8301 57.5723 23.8301C55.9408 23.8301 54.446 23.5977 53.0879 23.1328C51.7298 22.668 50.5312 21.9707 49.4922 21.041C48.4531 20.1113 47.5827 18.9492 46.8809 17.5547C46.1882 16.151 45.6914 14.5195 45.3906 12.6602C45.6003 12.7331 45.8236 12.8014 46.0605 12.8652C46.2975 12.929 46.5345 12.9837 46.7715 13.0293C46.9355 11.179 47.4186 9.55664 48.2207 8.16211C49.0228 6.75846 50.0618 5.58724 51.3379 4.64844C52.623 3.70052 54.1042 2.98958 55.7812 2.51562C57.4674 2.03255 59.2767 1.79102 61.209 1.79102C62.0931 1.79102 63.0365 1.83659 64.0391 1.92773C65.0508 2.01888 66.1354 2.16927 67.293 2.37891C67.0286 3.20833 66.8281 4.04232 66.6914 4.88086C66.5638 5.71029 66.5 6.53971 66.5 7.36914C66.5 8.24414 66.5684 9.11003 66.7051 9.9668C66.1673 9.56576 65.6296 9.23307 65.0918 8.96875C64.554 8.69531 64.0254 8.48112 63.5059 8.32617C62.9954 8.16211 62.4941 8.04818 62.002 7.98438C61.5098 7.91146 61.0404 7.875 60.5938 7.875C59.7461 7.875 58.8802 7.98893 57.9961 8.2168C57.112 8.44466 56.2734 8.7819 55.4805 9.22852C54.6966 9.66602 53.9902 10.2083 53.3613 10.8555C52.7415 11.4935 52.2676 12.2272 51.9395 13.0566C52.3132 13.002 52.6686 12.9382 53.0059 12.8652C53.3431 12.7832 53.6803 12.6875 54.0176 12.5781C53.9629 12.9792 53.9355 13.3529 53.9355 13.6992C53.9355 14.6107 54.0905 15.4036 54.4004 16.0781C54.7103 16.7526 55.1387 17.3132 55.6855 17.7598C56.2324 18.1973 56.875 18.5254 57.6133 18.7441C58.3607 18.9629 59.1673 19.0723 60.0332 19.0723C60.179 19.0723 60.3249 19.0723 60.4707 19.0723C60.6165 19.0723 60.7624 19.0632 60.9082 19.0449C60.5436 18.0241 60.2428 16.9987 60.0059 15.9688C59.7689 14.9388 59.5638 13.8359 59.3906 12.6602C59.8281 12.7422 60.2565 12.806 60.6758 12.8516C61.0951 12.8971 61.5098 12.9199 61.9199 12.9199C62.804 12.9199 63.6654 12.8242 64.5039 12.6328C65.3424 12.4414 66.2038 12.1634 67.0879 11.7988C66.6504 13.5124 66.3633 15.1895 66.2266 16.8301C66.4544 16.6751 66.6732 16.5111 66.8828 16.3379C67.1016 16.1556 67.3294 15.9642 67.5664 15.7637Z" fill="url(#paint7_linear_7796_255)"/>
<path d="M67.5664 15.7637C67.457 16.6387 67.2793 17.4225 67.0332 18.1152C66.7871 18.7988 66.4909 19.4095 66.1445 19.9473C66.1445 20.2389 66.1445 20.5443 66.1445 20.8633C66.1536 21.1823 66.1628 21.5013 66.1719 21.8203C66.181 22.1302 66.1947 22.431 66.2129 22.7227C66.2311 23.0143 66.2539 23.2741 66.2812 23.502L63.123 23.9668L62.5625 22.9141C61.7331 23.2604 60.8854 23.4974 60.0195 23.625C59.1628 23.7617 58.347 23.8301 57.5723 23.8301C55.9408 23.8301 54.446 23.5977 53.0879 23.1328C51.7298 22.668 50.5312 21.9707 49.4922 21.041C48.4531 20.1113 47.5827 18.9492 46.8809 17.5547C46.1882 16.151 45.6914 14.5195 45.3906 12.6602C45.6003 12.7331 45.8236 12.8014 46.0605 12.8652C46.2975 12.929 46.5345 12.9837 46.7715 13.0293C46.9355 11.179 47.4186 9.55664 48.2207 8.16211C49.0228 6.75846 50.0618 5.58724 51.3379 4.64844C52.623 3.70052 54.1042 2.98958 55.7812 2.51562C57.4674 2.03255 59.2767 1.79102 61.209 1.79102C62.0931 1.79102 63.0365 1.83659 64.0391 1.92773C65.0508 2.01888 66.1354 2.16927 67.293 2.37891C67.0286 3.20833 66.8281 4.04232 66.6914 4.88086C66.5638 5.71029 66.5 6.53971 66.5 7.36914C66.5 8.24414 66.5684 9.11003 66.7051 9.9668C66.1673 9.56576 65.6296 9.23307 65.0918 8.96875C64.554 8.69531 64.0254 8.48112 63.5059 8.32617C62.9954 8.16211 62.4941 8.04818 62.002 7.98438C61.5098 7.91146 61.0404 7.875 60.5938 7.875C59.7461 7.875 58.8802 7.98893 57.9961 8.2168C57.112 8.44466 56.2734 8.7819 55.4805 9.22852C54.6966 9.66602 53.9902 10.2083 53.3613 10.8555C52.7415 11.4935 52.2676 12.2272 51.9395 13.0566C52.3132 13.002 52.6686 12.9382 53.0059 12.8652C53.3431 12.7832 53.6803 12.6875 54.0176 12.5781C53.9629 12.9792 53.9355 13.3529 53.9355 13.6992C53.9355 14.6107 54.0905 15.4036 54.4004 16.0781C54.7103 16.7526 55.1387 17.3132 55.6855 17.7598C56.2324 18.1973 56.875 18.5254 57.6133 18.7441C58.3607 18.9629 59.1673 19.0723 60.0332 19.0723C60.179 19.0723 60.3249 19.0723 60.4707 19.0723C60.6165 19.0723 60.7624 19.0632 60.9082 19.0449C60.5436 18.0241 60.2428 16.9987 60.0059 15.9688C59.7689 14.9388 59.5638 13.8359 59.3906 12.6602C59.8281 12.7422 60.2565 12.806 60.6758 12.8516C61.0951 12.8971 61.5098 12.9199 61.9199 12.9199C62.804 12.9199 63.6654 12.8242 64.5039 12.6328C65.3424 12.4414 66.2038 12.1634 67.0879 11.7988C66.6504 13.5124 66.3633 15.1895 66.2266 16.8301C66.4544 16.6751 66.6732 16.5111 66.8828 16.3379C67.1016 16.1556 67.3294 15.9642 67.5664 15.7637Z" fill="#EFA009"/>
<path d="M39.5117 2.66602C39.1471 2.98503 38.8008 3.31771 38.4727 3.66406C38.1536 4.0013 37.8483 4.36133 37.5566 4.74414C38.5137 4.93555 39.416 5.25456 40.2637 5.70117C41.1204 6.14779 41.8678 6.71289 42.5059 7.39648C43.1439 8.08008 43.6497 8.88216 44.0234 9.80273C44.3971 10.7142 44.584 11.7305 44.584 12.8516C44.584 14.1003 44.3971 15.235 44.0234 16.2559C43.6589 17.2676 43.1484 18.1699 42.4922 18.9629C41.8359 19.7467 41.0612 20.4258 40.168 21C39.2747 21.5742 38.304 22.0527 37.2559 22.4355C36.2077 22.8092 35.1048 23.0827 33.9473 23.2559C32.7988 23.4382 31.6367 23.5293 30.4609 23.5293C30.0508 23.5293 29.6224 23.5202 29.1758 23.502C28.7292 23.4928 28.2962 23.4701 27.877 23.4336C27.4668 23.4062 27.0794 23.3607 26.7148 23.2969C26.3594 23.2422 26.0677 23.1693 25.8398 23.0781C26.1589 22.8138 26.4505 22.5449 26.7148 22.2715C26.9792 21.998 27.2298 21.7155 27.4668 21.4238C26.5098 21.2324 25.6029 20.9316 24.7461 20.5215C23.8893 20.1113 23.1374 19.5918 22.4902 18.9629C21.8522 18.3249 21.3464 17.5684 20.9727 16.6934C20.599 15.8184 20.4121 14.8112 20.4121 13.6719C20.4121 12.3503 20.6263 11.1562 21.0547 10.0898C21.4922 9.01432 22.0846 8.06641 22.832 7.24609C23.5885 6.41667 24.4727 5.70573 25.4844 5.11328C26.4961 4.51172 27.5853 4.01953 28.752 3.63672C29.9186 3.24479 31.1309 2.95768 32.3887 2.77539C33.6556 2.5931 34.9089 2.50195 36.1484 2.50195C36.6862 2.50195 37.2285 2.51562 37.7754 2.54297C38.3314 2.57031 38.9102 2.61133 39.5117 2.66602ZM38.4453 11.6758C38.4453 11.1471 38.3815 10.6732 38.2539 10.2539C38.1263 9.82552 37.9486 9.44271 37.7207 9.10547C37.4928 8.76823 37.2194 8.47656 36.9004 8.23047C36.5905 7.98438 36.2487 7.77018 35.875 7.58789C35.7292 7.91602 35.597 8.24414 35.4785 8.57227C35.3691 8.90039 35.2643 9.23763 35.1641 9.58398C34.6354 9.40169 34.1387 9.27865 33.6738 9.21484C33.2181 9.14193 32.7943 9.10547 32.4023 9.10547C31.7188 9.10547 31.026 9.22852 30.3242 9.47461C29.6224 9.71159 28.9889 10.0579 28.4238 10.5137C27.8678 10.9694 27.4121 11.5208 27.0566 12.168C26.7012 12.8151 26.5234 13.5397 26.5234 14.3418C26.5234 14.752 26.5827 15.153 26.7012 15.5449C26.8288 15.9277 27.002 16.2969 27.2207 16.6523C27.4486 17.0078 27.7129 17.3496 28.0137 17.6777C28.3236 17.9967 28.6562 18.3021 29.0117 18.5938C29.1393 18.2109 29.235 17.8327 29.2988 17.459C29.3717 17.0762 29.4173 16.6706 29.4355 16.2422C30.0371 16.5521 30.6113 16.7663 31.1582 16.8848C31.7142 17.0033 32.2292 17.0625 32.7031 17.0625C33.4141 17.0625 34.1113 16.9395 34.7949 16.6934C35.4876 16.4473 36.1029 16.0918 36.6406 15.627C37.1875 15.1621 37.625 14.597 37.9531 13.9316C38.2812 13.2663 38.4453 12.5143 38.4453 11.6758Z" fill="url(#paint8_linear_7796_255)"/>
<path d="M39.5117 2.66602C39.1471 2.98503 38.8008 3.31771 38.4727 3.66406C38.1536 4.0013 37.8483 4.36133 37.5566 4.74414C38.5137 4.93555 39.416 5.25456 40.2637 5.70117C41.1204 6.14779 41.8678 6.71289 42.5059 7.39648C43.1439 8.08008 43.6497 8.88216 44.0234 9.80273C44.3971 10.7142 44.584 11.7305 44.584 12.8516C44.584 14.1003 44.3971 15.235 44.0234 16.2559C43.6589 17.2676 43.1484 18.1699 42.4922 18.9629C41.8359 19.7467 41.0612 20.4258 40.168 21C39.2747 21.5742 38.304 22.0527 37.2559 22.4355C36.2077 22.8092 35.1048 23.0827 33.9473 23.2559C32.7988 23.4382 31.6367 23.5293 30.4609 23.5293C30.0508 23.5293 29.6224 23.5202 29.1758 23.502C28.7292 23.4928 28.2962 23.4701 27.877 23.4336C27.4668 23.4062 27.0794 23.3607 26.7148 23.2969C26.3594 23.2422 26.0677 23.1693 25.8398 23.0781C26.1589 22.8138 26.4505 22.5449 26.7148 22.2715C26.9792 21.998 27.2298 21.7155 27.4668 21.4238C26.5098 21.2324 25.6029 20.9316 24.7461 20.5215C23.8893 20.1113 23.1374 19.5918 22.4902 18.9629C21.8522 18.3249 21.3464 17.5684 20.9727 16.6934C20.599 15.8184 20.4121 14.8112 20.4121 13.6719C20.4121 12.3503 20.6263 11.1562 21.0547 10.0898C21.4922 9.01432 22.0846 8.06641 22.832 7.24609C23.5885 6.41667 24.4727 5.70573 25.4844 5.11328C26.4961 4.51172 27.5853 4.01953 28.752 3.63672C29.9186 3.24479 31.1309 2.95768 32.3887 2.77539C33.6556 2.5931 34.9089 2.50195 36.1484 2.50195C36.6862 2.50195 37.2285 2.51562 37.7754 2.54297C38.3314 2.57031 38.9102 2.61133 39.5117 2.66602ZM38.4453 11.6758C38.4453 11.1471 38.3815 10.6732 38.2539 10.2539C38.1263 9.82552 37.9486 9.44271 37.7207 9.10547C37.4928 8.76823 37.2194 8.47656 36.9004 8.23047C36.5905 7.98438 36.2487 7.77018 35.875 7.58789C35.7292 7.91602 35.597 8.24414 35.4785 8.57227C35.3691 8.90039 35.2643 9.23763 35.1641 9.58398C34.6354 9.40169 34.1387 9.27865 33.6738 9.21484C33.2181 9.14193 32.7943 9.10547 32.4023 9.10547C31.7188 9.10547 31.026 9.22852 30.3242 9.47461C29.6224 9.71159 28.9889 10.0579 28.4238 10.5137C27.8678 10.9694 27.4121 11.5208 27.0566 12.168C26.7012 12.8151 26.5234 13.5397 26.5234 14.3418C26.5234 14.752 26.5827 15.153 26.7012 15.5449C26.8288 15.9277 27.002 16.2969 27.2207 16.6523C27.4486 17.0078 27.7129 17.3496 28.0137 17.6777C28.3236 17.9967 28.6562 18.3021 29.0117 18.5938C29.1393 18.2109 29.235 17.8327 29.2988 17.459C29.3717 17.0762 29.4173 16.6706 29.4355 16.2422C30.0371 16.5521 30.6113 16.7663 31.1582 16.8848C31.7142 17.0033 32.2292 17.0625 32.7031 17.0625C33.4141 17.0625 34.1113 16.9395 34.7949 16.6934C35.4876 16.4473 36.1029 16.0918 36.6406 15.627C37.1875 15.1621 37.625 14.597 37.9531 13.9316C38.2812 13.2663 38.4453 12.5143 38.4453 11.6758Z" fill="#EFA009"/>
<path d="M19.9062 22.627C18.3568 22.39 16.8118 22.2122 15.2715 22.0938C13.7402 21.9661 12.1862 21.9023 10.6094 21.9023C8.85026 21.9023 7.08659 21.9798 5.31836 22.1348C3.55924 22.2897 1.78646 22.5404 0 22.8867C0.446615 22.5404 0.893229 22.2031 1.33984 21.875C1.79557 21.5469 2.26497 21.237 2.74805 20.9453C2.95768 19.7057 3.11263 18.4844 3.21289 17.2812C3.31315 16.0781 3.36328 14.8659 3.36328 13.6445C3.36328 11.8307 3.25846 10.0397 3.04883 8.27148C2.83919 6.49414 2.55208 4.72591 2.1875 2.9668C2.37891 2.98503 2.57487 2.9987 2.77539 3.00781C2.98503 3.00781 3.1901 3.00781 3.39062 3.00781C4.54818 3.00781 5.68294 2.9349 6.79492 2.78906C7.9069 2.63411 9.01888 2.41536 10.1309 2.13281C10.1309 4.76693 9.9987 7.39648 9.73438 10.0215C9.47917 12.6374 9.05078 15.2533 8.44922 17.8691C10.1536 17.1217 11.9036 16.4837 13.6992 15.9551C15.4948 15.4264 17.3587 15.0026 19.291 14.6836C19.1816 15.6042 19.127 16.5065 19.127 17.3906C19.127 18.2747 19.1862 19.1543 19.3047 20.0293C19.4232 20.9043 19.6237 21.7702 19.9062 22.627Z" fill="url(#paint9_linear_7796_255)"/>
<path d="M19.9062 22.627C18.3568 22.39 16.8118 22.2122 15.2715 22.0938C13.7402 21.9661 12.1862 21.9023 10.6094 21.9023C8.85026 21.9023 7.08659 21.9798 5.31836 22.1348C3.55924 22.2897 1.78646 22.5404 0 22.8867C0.446615 22.5404 0.893229 22.2031 1.33984 21.875C1.79557 21.5469 2.26497 21.237 2.74805 20.9453C2.95768 19.7057 3.11263 18.4844 3.21289 17.2812C3.31315 16.0781 3.36328 14.8659 3.36328 13.6445C3.36328 11.8307 3.25846 10.0397 3.04883 8.27148C2.83919 6.49414 2.55208 4.72591 2.1875 2.9668C2.37891 2.98503 2.57487 2.9987 2.77539 3.00781C2.98503 3.00781 3.1901 3.00781 3.39062 3.00781C4.54818 3.00781 5.68294 2.9349 6.79492 2.78906C7.9069 2.63411 9.01888 2.41536 10.1309 2.13281C10.1309 4.76693 9.9987 7.39648 9.73438 10.0215C9.47917 12.6374 9.05078 15.2533 8.44922 17.8691C10.1536 17.1217 11.9036 16.4837 13.6992 15.9551C15.4948 15.4264 17.3587 15.0026 19.291 14.6836C19.1816 15.6042 19.127 16.5065 19.127 17.3906C19.127 18.2747 19.1862 19.1543 19.3047 20.0293C19.4232 20.9043 19.6237 21.7702 19.9062 22.627Z" fill="#EFA009"/>
<defs>
<linearGradient id="paint0_linear_7796_255" x1="122.555" y1="-5.48242" x2="122.555" y2="31.5176" gradientUnits="userSpaceOnUse">
<stop stop-color="#D4D4D4"/>
<stop offset="1" stop-color="white"/>
</linearGradient>
<linearGradient id="paint1_linear_7796_255" x1="122.555" y1="-5.48242" x2="122.555" y2="31.5176" gradientUnits="userSpaceOnUse">
<stop stop-color="#D4D4D4"/>
<stop offset="1" stop-color="white"/>
</linearGradient>
<linearGradient id="paint2_linear_7796_255" x1="122.555" y1="-5.48242" x2="122.555" y2="31.5176" gradientUnits="userSpaceOnUse">
<stop stop-color="#D4D4D4"/>
<stop offset="1" stop-color="white"/>
</linearGradient>
<linearGradient id="paint3_linear_7796_255" x1="122.555" y1="-5.48242" x2="122.555" y2="31.5176" gradientUnits="userSpaceOnUse">
<stop stop-color="#D4D4D4"/>
<stop offset="1" stop-color="white"/>
</linearGradient>
<linearGradient id="paint4_linear_7796_255" x1="122.555" y1="-5.48242" x2="122.555" y2="31.5176" gradientUnits="userSpaceOnUse">
<stop stop-color="#D4D4D4"/>
<stop offset="1" stop-color="white"/>
</linearGradient>
<linearGradient id="paint5_linear_7796_255" x1="122.555" y1="-5.48242" x2="122.555" y2="31.5176" gradientUnits="userSpaceOnUse">
<stop stop-color="#D4D4D4"/>
<stop offset="1" stop-color="white"/>
</linearGradient>
<linearGradient id="paint6_linear_7796_255" x1="122.555" y1="-5.48242" x2="122.555" y2="31.5176" gradientUnits="userSpaceOnUse">
<stop stop-color="#D4D4D4"/>
<stop offset="1" stop-color="white"/>
</linearGradient>
<linearGradient id="paint7_linear_7796_255" x1="122.555" y1="-5.48242" x2="122.555" y2="31.5176" gradientUnits="userSpaceOnUse">
<stop stop-color="#D4D4D4"/>
<stop offset="1" stop-color="white"/>
</linearGradient>
<linearGradient id="paint8_linear_7796_255" x1="122.555" y1="-5.48242" x2="122.555" y2="31.5176" gradientUnits="userSpaceOnUse">
<stop stop-color="#D4D4D4"/>
<stop offset="1" stop-color="white"/>
</linearGradient>
<linearGradient id="paint9_linear_7796_255" x1="122.555" y1="-5.48242" x2="122.555" y2="31.5176" gradientUnits="userSpaceOnUse">
<stop stop-color="#D4D4D4"/>
<stop offset="1" stop-color="white"/>
</linearGradient>
</defs>
</svg>
