<svg width="1440" height="400" viewBox="0 0 1440 400" fill="none" xmlns="http://www.w3.org/2000/svg">
<path d="M0 0.5L1442 0.500058M2.5034e-06 6.63832L1442 6.63836M2.5034e-06 12.777L1442 12.777M2.5034e-06 18.9153L1442 18.9153M2.5034e-06 25.0539L1442 25.054M2.5034e-06 31.1923L1442 31.1923M2.5034e-06 37.3309L1442 37.331M2.5034e-06 43.4692L1442 43.4693M2.5034e-06 49.6075L1442 49.6076M2.5034e-06 55.7462L1442 55.7462M2.5034e-06 61.8845L1442 61.8846M2.5034e-06 68.0232L1442 68.0232M2.5034e-06 74.1615L1442 74.1615M2.5034e-06 80.3001L1442 80.3002M2.5034e-06 86.4385L1442 86.4385M2.5034e-06 92.5768L1442 92.5768M2.5034e-06 98.7154L1442 98.7155M2.5034e-06 104.854L1442 104.854M2.5034e-06 110.992L1442 110.992M2.5034e-06 117.131L1442 117.131M2.5034e-06 123.269L1442 123.269M2.5034e-06 129.408L1442 129.408M2.5034e-06 135.546L1442 135.546M2.5034e-06 141.685L1442 141.685M2.5034e-06 147.823L1442 147.823M2.5034e-06 153.962L1442 153.962M2.5034e-06 160.1L1442 160.1M2.5034e-06 166.239L1442 166.239M2.5034e-06 172.377L1442 172.377M2.5034e-06 178.515L1442 178.515M2.5034e-06 184.654L1442 184.654M2.5034e-06 190.792L1442 190.792M2.5034e-06 196.931L1442 196.931M1.19209e-07 203.069L1442 203.069M2.5034e-06 209.208L1442 209.208M2.5034e-06 215.346L1442 215.346M2.5034e-06 221.484L1442 221.484M2.5034e-06 227.623L1442 227.623M2.5034e-06 233.761L1442 233.761M2.5034e-06 239.9L1442 239.9M2.5034e-06 246.038L1442 246.038M2.5034e-06 252.177L1442 252.177M2.5034e-06 258.315L1442 258.315M2.5034e-06 264.454L1442 264.454M2.5034e-06 270.592L1442 270.592M2.5034e-06 276.731L1442 276.731M2.5034e-06 282.869L1442 282.869M2.5034e-06 289.008L1442 289.008M2.5034e-06 295.146L1442 295.146M2.5034e-06 301.285L1442 301.285M2.5034e-06 307.423L1442 307.423M2.5034e-06 313.562L1442 313.562M2.5034e-06 319.7L1442 319.7M2.5034e-06 325.839L1442 325.839M2.5034e-06 331.977L1442 331.977M2.5034e-06 338.115L1442 338.116M2.5034e-06 344.254L1442 344.254M2.5034e-06 350.392L1442 350.392M2.5034e-06 356.531L1442 356.531M2.5034e-06 362.669L1442 362.669M2.5034e-06 368.808L1442 368.808M2.5034e-06 374.946L1442 374.946M2.5034e-06 381.085L1442 381.085M2.5034e-06 387.223L1442 387.223M2.5034e-06 393.361L1442 393.361M2.5034e-06 399.5L1442 399.5" stroke="#D9D9D9" stroke-opacity="0.11"/>
</svg>
