<svg width="50" height="50" viewBox="0 0 50 50" fill="none" xmlns="http://www.w3.org/2000/svg">
  <path d="M37.77 25.8379C37.7482 21.9854 39.428 19.0819 42.8203 16.941C40.923 14.1166 38.0526 12.5631 34.269 12.2637C30.6864 11.97 26.7668 14.4329 25.3316 14.4329C23.8149 14.4329 20.3465 12.3654 17.6175 12.3654C11.9854 12.4558 6 17.0313 6 26.3406C6 29.0916 6.48383 31.9329 7.4515 34.859C8.74535 38.7115 13.4097 48.1507 18.2752 47.9982C20.8195 47.936 22.6189 46.1228 25.9296 46.1228C29.1425 46.1228 30.806 47.9982 33.6438 47.9982C38.5528 47.9247 42.7714 39.3442 44 35.4804C37.4166 32.2549 37.77 26.0356 37.77 25.8379ZM32.0564 8.60896C34.8126 5.20837 34.5625 2.11282 34.481 1C32.0455 1.14687 29.2295 2.72289 27.6257 4.66043C25.8589 6.7392 24.8206 9.30941 25.0435 12.2073C27.6747 12.4163 30.0775 11.0097 32.0564 8.60896Z" fill="white" />
</svg>