<svg width="50" height="58" viewBox="0 0 50 58" fill="none" xmlns="http://www.w3.org/2000/svg">
  <path d="M37.77 24.8379C37.7482 20.9854 39.428 18.0819 42.8203 15.941C40.923 13.1166 38.0526 11.5631 34.269 11.2637C30.6864 10.97 26.7668 13.4329 25.3316 13.4329C23.8149 13.4329 20.3465 11.3654 17.6175 11.3654C11.9854 11.4558 6 16.0313 6 25.3406C6 28.0916 6.48383 30.9329 7.4515 33.859C8.74535 37.7115 13.4097 47.1507 18.2752 46.9982C20.8195 46.936 22.6189 45.1228 25.9296 45.1228C29.1425 45.1228 30.806 46.9982 33.6438 46.9982C38.5528 46.9247 42.7714 38.3442 44 34.4804C37.4166 31.2549 37.77 25.0356 37.77 24.8379V24.8379ZM32.0564 7.60896C34.8126 4.20837 34.5625 1.11282 34.481 0C32.0455 0.146869 29.2295 1.72289 27.6257 3.66043C25.8589 5.7392 24.8206 8.30941 25.0435 11.2073C27.6747 11.4163 30.0775 10.0097 32.0564 7.60896V7.60896Z" fill="white" />
</svg>