<svg width="50" height="50" viewBox="0 0 50 50" fill="none" xmlns="http://www.w3.org/2000/svg">
  <path d="M15.4 35C15.4 35.9167 16.12 36.6667 17 36.6667H18.6V42.5C18.6 43.8833 19.672 45 21 45C22.328 45 23.4 43.8833 23.4 42.5V36.6667H26.6V42.5C26.6 43.8833 27.672 45 29 45C30.328 45 31.4 43.8833 31.4 42.5V36.6667H33C33.88 36.6667 34.6 35.9167 34.6 35V18.3333H15.4V35ZM11.4 18.3333C10.072 18.3333 9 19.45 9 20.8333V32.5C9 33.8833 10.072 35 11.4 35C12.728 35 13.8 33.8833 13.8 32.5V20.8333C13.8 19.45 12.728 18.3333 11.4 18.3333ZM38.6 18.3333C37.272 18.3333 36.2 19.45 36.2 20.8333V32.5C36.2 33.8833 37.272 35 38.6 35C39.928 35 41 33.8833 41 32.5V20.8333C41 19.45 39.928 18.3333 38.6 18.3333ZM30.648 8.6L32.728 6.43333C33.048 6.1 33.048 5.58333 32.728 5.25C32.408 4.91667 31.912 4.91667 31.592 5.25L29.224 7.71667C27.96 7.05 26.52 6.66667 25 6.66667C23.464 6.66667 22.024 7.05 20.744 7.71667L18.36 5.25C18.04 4.91667 17.544 4.91667 17.224 5.25C16.904 5.58333 16.904 6.1 17.224 6.43333L19.32 8.61667C16.952 10.4333 15.4 13.35 15.4 16.6667H34.6C34.6 13.35 33.048 10.4167 30.648 8.6ZM21.8 13.3333H20.2V11.6667H21.8V13.3333ZM29.8 13.3333H28.2V11.6667H29.8V13.3333Z" fill="#00E64D" />
</svg>