<svg width="50" height="50" viewBox="0 0 50 50" fill="none" xmlns="http://www.w3.org/2000/svg">
  <path d="M35.3672 33.0423C40.7475 29.8574 44.8618 27.4309 45.2134 27.2413C46.3387 26.5968 47.4991 24.8906 45.2134 23.5636C44.475 23.1465 40.5013 20.7958 35.3672 17.7626L28.299 25.4214L35.3672 33.0423Z" fill="#FFDD33" />
  <path d="M28.2991 25.4214L5.72318 49.9523C6.25065 50.0281 6.84845 49.8765 7.55176 49.4594C9.02869 48.5874 24.7123 39.3361 35.3673 33.0423L28.2991 25.4214Z" fill="#FF6666" />
  <path d="M28.2991 25.4214L35.3673 17.7626C35.3673 17.7626 9.13419 2.33119 7.55176 1.42123C6.95396 1.04208 6.28582 0.928335 5.68802 1.04208L28.2991 25.4214Z" fill="#7BFF7B" />
  <path d="M28.2991 25.4214L5.68795 1.0421C4.77366 1.26958 4.00003 2.14163 4.00003 3.92363C4.00003 6.76725 4.00003 44.6822 4.00003 47.0708C4.00003 48.7012 4.59784 49.8765 5.72312 49.9903L28.2991 25.4214Z" fill="#6ED8FF" />
</svg>