<svg width="36" height="34" viewBox="0 0 36 34" fill="none" xmlns="http://www.w3.org/2000/svg">
<path d="M23.5394 22V21.9996H23.5422V17.9653C23.5422 15.9917 23.0964 14.4714 20.6754 14.4714C19.5116 14.4714 18.7305 15.0801 18.4117 15.6571H18.378V14.6557H16.0825V21.9996H18.4727V18.3631C18.4727 17.4057 18.6632 16.4799 19.9074 16.4799C21.1333 16.4799 21.1515 17.5725 21.1515 18.4246V22H23.5394Z" fill="black"/>
<path d="M12.1904 14.6561H14.5835V22H12.1904V14.6561Z" fill="black"/>
<path d="M13.386 11C12.6209 11 12 11.5917 12 12.3209C12 13.0501 12.6209 13.6542 13.386 13.6542C14.1512 13.6542 14.7721 13.0501 14.7721 12.3209C14.7716 11.5917 14.1507 11 13.386 11V11Z" fill="black"/>
</svg>
