<svg width="36" height="34" viewBox="0 0 36 34" fill="none" xmlns="http://www.w3.org/2000/svg">
<path d="M24.641 13.2504C24.1337 13.4625 23.5932 13.6031 23.0296 13.6713C23.6094 13.3414 24.0518 12.8231 24.2599 12.1982C23.7193 12.5054 23.1226 12.7223 22.4865 12.8434C21.9733 12.3226 21.2418 12 20.4438 12C18.8956 12 17.6491 13.1976 17.6491 14.6658C17.6491 14.8771 17.6679 15.0802 17.7139 15.2736C15.389 15.1655 13.3318 14.1036 11.9498 12.4859C11.7085 12.8848 11.567 13.3414 11.567 13.833C11.567 14.756 12.0657 15.5742 12.8091 16.0479C12.3598 16.0397 11.9191 15.9154 11.5456 15.7196C11.5456 15.7278 11.5456 15.7383 11.5456 15.7489C11.5456 17.044 12.515 18.1197 13.7862 18.3676C13.5585 18.4269 13.3104 18.4553 13.053 18.4553C12.8739 18.4553 12.6932 18.4456 12.5235 18.4098C12.8859 19.4652 13.9141 20.2412 15.1366 20.2664C14.1852 20.9757 12.9771 21.4031 11.6693 21.4031C11.4399 21.4031 11.22 21.3933 11 21.3665C12.2388 22.1278 13.7069 22.5625 15.2901 22.5625C20.4361 22.5625 23.2496 18.5 23.2496 14.9786C23.2496 14.8608 23.2453 14.7471 23.2394 14.6341C23.7944 14.2588 24.2607 13.7899 24.641 13.2504Z" fill="black"/>
</svg>
